<svg width="402" height="171" viewBox="0 0 402 171" fill="none" xmlns="http://www.w3.org/2000/svg">
<g clip-path="url(#clip0_4270_4177)">
<mask id="path-1-inside-1_4270_4177" fill="white">
<path d="M19.666 5.5H382.666V49.5H19.666V5.5Z"/>
</mask>
<path d="M382.666 48.5H19.666V50.5H382.666V48.5Z" fill="#E1E1E1" mask="url(#path-1-inside-1_4270_4177)"/>
<g filter="url(#filter0_ddd_4270_4177)">
<rect x="25.666" y="5.5" width="32" height="32" rx="16" fill="white"/>
<rect x="25.666" y="5.5" width="32" height="32" rx="16" fill="url(#paint0_linear_4270_4177)" fill-opacity="0.1"/>
<path fill-rule="evenodd" clip-rule="evenodd" d="M39.6647 20.1654C38.5601 20.1654 37.6647 19.2699 37.6647 18.1654C37.6647 17.0608 38.5601 16.1654 39.6647 16.1654C40.7693 16.1654 41.6647 17.0608 41.6647 18.1654C41.6647 19.2699 40.7693 20.1654 39.6647 20.1654ZM39.6647 21.4987C41.5057 21.4987 42.998 20.0063 42.998 18.1654C42.998 16.3244 41.5057 14.832 39.6647 14.832C37.8238 14.832 36.3314 16.3244 36.3314 18.1654C36.3314 20.0063 37.8238 21.4987 39.6647 21.4987ZM38.3314 24.1654C37.2268 24.1654 36.3314 25.0608 36.3314 26.1654V27.4987C36.3314 27.8669 36.0329 28.1654 35.6647 28.1654C35.2965 28.1654 34.998 27.8669 34.998 27.4987V26.1654C34.998 24.3244 36.4904 22.832 38.3314 22.832H40.998C42.839 22.832 44.3314 24.3244 44.3314 26.1654V27.4987C44.3314 27.8669 44.0329 28.1654 43.6647 28.1654C43.2965 28.1654 42.998 27.8669 42.998 27.4987V26.1654C42.998 25.0608 42.1026 24.1654 40.998 24.1654H38.3314ZM44.9149 15.0744C44.5736 14.9363 44.1849 15.101 44.0468 15.4422C43.9086 15.7835 44.0733 16.1722 44.4146 16.3103C45.1488 16.6075 45.6647 17.3269 45.6647 18.1652C45.6647 19.0035 45.1488 19.7229 44.4146 20.0201C44.0733 20.1582 43.9086 20.5469 44.0468 20.8882C44.1849 21.2295 44.5736 21.3941 44.9149 21.256C46.1352 20.762 46.998 19.5652 46.998 18.1652C46.998 16.7653 46.1352 15.5684 44.9149 15.0744ZM45.8309 22.9369C45.4743 22.8452 45.1109 23.0598 45.0191 23.4164C44.9273 23.773 45.142 24.1364 45.4985 24.2282C46.3613 24.4502 46.998 25.2342 46.998 26.1652V27.4985C46.998 27.8667 47.2965 28.1652 47.6647 28.1652C48.0329 28.1652 48.3314 27.8667 48.3314 27.4985V26.1652C48.3314 24.6111 47.2684 23.3069 45.8309 22.9369Z" fill="#43494F"/>
</g>
<path d="M75.291 18.9205C75.2304 18.3826 74.9804 17.9659 74.541 17.6705C74.1016 17.3712 73.5486 17.2216 72.8819 17.2216C72.4047 17.2216 71.9918 17.2973 71.6433 17.4489C71.2948 17.5966 71.024 17.8011 70.8308 18.0625C70.6414 18.3201 70.5467 18.6136 70.5467 18.9432C70.5467 19.2197 70.6111 19.4583 70.7399 19.6591C70.8725 19.8598 71.0448 20.0284 71.2569 20.1648C71.4728 20.2973 71.7039 20.4091 71.9501 20.5C72.1963 20.5871 72.4331 20.6591 72.6603 20.7159L73.7967 21.0114C74.1679 21.1023 74.5486 21.2254 74.9387 21.3807C75.3289 21.536 75.6906 21.7405 76.024 21.9943C76.3573 22.2481 76.6262 22.5625 76.8308 22.9375C77.0391 23.3125 77.1433 23.7614 77.1433 24.2841C77.1433 24.9432 76.9728 25.5284 76.6319 26.0398C76.2948 26.5511 75.8043 26.9545 75.1603 27.25C74.5202 27.5455 73.7456 27.6932 72.8365 27.6932C71.9653 27.6932 71.2115 27.5549 70.5751 27.2784C69.9387 27.0019 69.4406 26.6098 69.0808 26.1023C68.7209 25.5909 68.5221 24.9848 68.4842 24.2841H70.2456C70.2797 24.7045 70.416 25.0549 70.6547 25.3352C70.8971 25.6117 71.2058 25.8182 71.5808 25.9545C71.9596 26.0871 72.3743 26.1534 72.8251 26.1534C73.3213 26.1534 73.7626 26.0758 74.149 25.9205C74.5391 25.7614 74.8459 25.5417 75.0694 25.2614C75.2929 24.9773 75.4047 24.6458 75.4047 24.267C75.4047 23.9223 75.3062 23.6402 75.1092 23.4205C74.916 23.2008 74.6528 23.0189 74.3194 22.875C73.9899 22.7311 73.6168 22.6042 73.2001 22.4943L71.8251 22.1193C70.8933 21.8655 70.1547 21.4924 69.6092 21C69.0675 20.5076 68.7967 19.8561 68.7967 19.0455C68.7967 18.375 68.9785 17.7898 69.3422 17.2898C69.7058 16.7898 70.1982 16.4015 70.8194 16.125C71.4406 15.8447 72.1414 15.7045 72.9217 15.7045C73.7096 15.7045 74.4047 15.8428 75.0069 16.1193C75.613 16.3958 76.0903 16.7765 76.4387 17.2614C76.7872 17.7424 76.969 18.2955 76.9842 18.9205H75.291ZM84.6333 23.8807V18.7727H86.3379V27.5H84.6674V25.9886H84.5765C84.3758 26.4545 84.0538 26.8428 83.6106 27.1534C83.1712 27.4602 82.6239 27.6136 81.9686 27.6136C81.408 27.6136 80.9118 27.4905 80.4799 27.2443C80.0519 26.9943 79.7148 26.625 79.4686 26.1364C79.2261 25.6477 79.1049 25.0436 79.1049 24.3239V18.7727H80.8038V24.1193C80.8038 24.714 80.9686 25.1875 81.2981 25.5398C81.6277 25.892 82.0557 26.0682 82.5822 26.0682C82.9004 26.0682 83.2167 25.9886 83.5311 25.8295C83.8493 25.6705 84.1125 25.4299 84.3208 25.108C84.533 24.786 84.6371 24.3769 84.6333 23.8807ZM88.7569 27.5V15.8636H90.4558V20.1875H90.5581C90.6565 20.0057 90.7986 19.7955 90.9842 19.5568C91.1698 19.3182 91.4274 19.1098 91.7569 18.9318C92.0865 18.75 92.5221 18.6591 93.0637 18.6591C93.7683 18.6591 94.3971 18.8371 94.9501 19.1932C95.5031 19.5492 95.9368 20.0625 96.2512 20.733C96.5694 21.4034 96.7285 22.2102 96.7285 23.1534C96.7285 24.0966 96.5713 24.9053 96.2569 25.5795C95.9425 26.25 95.5107 26.767 94.9615 27.1307C94.4122 27.4905 93.7853 27.6705 93.0808 27.6705C92.5505 27.6705 92.1168 27.5814 91.7797 27.4034C91.4463 27.2254 91.185 27.017 90.9956 26.7784C90.8062 26.5398 90.6603 26.3277 90.5581 26.142H90.416V27.5H88.7569ZM90.4217 23.1364C90.4217 23.75 90.5107 24.2879 90.6887 24.75C90.8668 25.2121 91.1243 25.5739 91.4615 25.8352C91.7986 26.0928 92.2115 26.2216 92.7001 26.2216C93.2077 26.2216 93.6319 26.0871 93.9728 25.8182C94.3137 25.5455 94.5713 25.1761 94.7456 24.7102C94.9236 24.2443 95.0126 23.7197 95.0126 23.1364C95.0126 22.5606 94.9255 22.0436 94.7512 21.5852C94.5808 21.1269 94.3232 20.7652 93.9785 20.5C93.6376 20.2348 93.2115 20.1023 92.7001 20.1023C92.2077 20.1023 91.791 20.2292 91.4501 20.483C91.113 20.7367 90.8573 21.0909 90.6831 21.5455C90.5088 22 90.4217 22.5303 90.4217 23.1364ZM105.176 20.9034L103.636 21.1761C103.572 20.9792 103.47 20.7917 103.329 20.6136C103.193 20.4356 103.007 20.2898 102.773 20.1761C102.538 20.0625 102.244 20.0057 101.892 20.0057C101.411 20.0057 101.009 20.1136 100.687 20.3295C100.365 20.5417 100.204 20.8163 100.204 21.1534C100.204 21.4451 100.312 21.6799 100.528 21.858C100.744 22.036 101.093 22.1818 101.574 22.2955L102.96 22.6136C103.763 22.7992 104.362 23.0852 104.756 23.4716C105.149 23.858 105.346 24.3598 105.346 24.9773C105.346 25.5 105.195 25.9659 104.892 26.375C104.593 26.7803 104.174 27.0985 103.636 27.3295C103.102 27.5606 102.483 27.6761 101.778 27.6761C100.801 27.6761 100.004 27.4678 99.3862 27.0511C98.7688 26.6307 98.39 26.0341 98.2498 25.2614L99.8919 25.0114C99.9941 25.4394 100.204 25.7633 100.523 25.983C100.841 26.1989 101.256 26.3068 101.767 26.3068C102.324 26.3068 102.769 26.1913 103.102 25.9602C103.435 25.7254 103.602 25.4394 103.602 25.1023C103.602 24.8295 103.5 24.6004 103.295 24.4148C103.095 24.2292 102.786 24.089 102.369 23.9943L100.892 23.6705C100.077 23.4848 99.4752 23.1894 99.085 22.7841C98.6987 22.3788 98.5055 21.8655 98.5055 21.2443C98.5055 20.7292 98.6494 20.2784 98.9373 19.892C99.2252 19.5057 99.6229 19.2045 100.131 18.9886C100.638 18.7689 101.22 18.6591 101.875 18.6591C102.818 18.6591 103.56 18.8636 104.102 19.2727C104.644 19.678 105.002 20.2216 105.176 20.9034ZM110.89 27.6761C110.046 27.6761 109.318 27.4848 108.709 27.1023C108.103 26.7159 107.637 26.1837 107.311 25.5057C106.985 24.8277 106.822 24.0511 106.822 23.1761C106.822 22.2898 106.989 21.5076 107.322 20.8295C107.656 20.1477 108.125 19.6155 108.731 19.233C109.337 18.8504 110.051 18.6591 110.873 18.6591C111.536 18.6591 112.127 18.7822 112.646 19.0284C113.165 19.2708 113.584 19.6117 113.902 20.0511C114.224 20.4905 114.415 21.0038 114.476 21.5909H112.822C112.731 21.1818 112.523 20.8295 112.197 20.5341C111.875 20.2386 111.443 20.0909 110.902 20.0909C110.428 20.0909 110.014 20.2159 109.657 20.4659C109.305 20.7121 109.031 21.0644 108.834 21.5227C108.637 21.9773 108.538 22.5152 108.538 23.1364C108.538 23.7727 108.635 24.322 108.828 24.7841C109.021 25.2462 109.294 25.6042 109.646 25.858C110.002 26.1117 110.421 26.2386 110.902 26.2386C111.224 26.2386 111.515 26.1799 111.777 26.0625C112.042 25.9413 112.264 25.7689 112.442 25.5455C112.623 25.322 112.75 25.053 112.822 24.7386H114.476C114.415 25.303 114.231 25.8068 113.925 26.25C113.618 26.6932 113.207 27.0417 112.692 27.2955C112.18 27.5492 111.58 27.6761 110.89 27.6761ZM116.292 27.5V18.7727H117.934V20.1591H118.025C118.184 19.6894 118.465 19.3201 118.866 19.0511C119.272 18.7784 119.73 18.642 120.241 18.642C120.347 18.642 120.472 18.6458 120.616 18.6534C120.764 18.661 120.88 18.6705 120.963 18.6818V20.3068C120.895 20.2879 120.773 20.267 120.599 20.2443C120.425 20.2178 120.251 20.2045 120.077 20.2045C119.675 20.2045 119.317 20.2898 119.003 20.4602C118.692 20.6269 118.446 20.8598 118.264 21.1591C118.082 21.4545 117.991 21.7917 117.991 22.1705V27.5H116.292ZM122.433 27.5V18.7727H124.132V27.5H122.433ZM123.291 17.4261C122.996 17.4261 122.742 17.3277 122.53 17.1307C122.321 16.9299 122.217 16.6913 122.217 16.4148C122.217 16.1345 122.321 15.8958 122.53 15.6989C122.742 15.4981 122.996 15.3977 123.291 15.3977C123.586 15.3977 123.838 15.4981 124.047 15.6989C124.259 15.8958 124.365 16.1345 124.365 16.4148C124.365 16.6913 124.259 16.9299 124.047 17.1307C123.838 17.3277 123.586 17.4261 123.291 17.4261ZM126.554 27.5V15.8636H128.253V20.1875H128.355C128.453 20.0057 128.595 19.7955 128.781 19.5568C128.967 19.3182 129.224 19.1098 129.554 18.9318C129.883 18.75 130.319 18.6591 130.861 18.6591C131.565 18.6591 132.194 18.8371 132.747 19.1932C133.3 19.5492 133.734 20.0625 134.048 20.733C134.366 21.4034 134.525 22.2102 134.525 23.1534C134.525 24.0966 134.368 24.9053 134.054 25.5795C133.739 26.25 133.308 26.767 132.758 27.1307C132.209 27.4905 131.582 27.6705 130.878 27.6705C130.347 27.6705 129.914 27.5814 129.577 27.4034C129.243 27.2254 128.982 27.017 128.792 26.7784C128.603 26.5398 128.457 26.3277 128.355 26.142H128.213V27.5H126.554ZM128.219 23.1364C128.219 23.75 128.308 24.2879 128.486 24.75C128.664 25.2121 128.921 25.5739 129.258 25.8352C129.595 26.0928 130.008 26.2216 130.497 26.2216C131.005 26.2216 131.429 26.0871 131.77 25.8182C132.111 25.5455 132.368 25.1761 132.542 24.7102C132.72 24.2443 132.809 23.7197 132.809 23.1364C132.809 22.5606 132.722 22.0436 132.548 21.5852C132.378 21.1269 132.12 20.7652 131.775 20.5C131.434 20.2348 131.008 20.1023 130.497 20.1023C130.005 20.1023 129.588 20.2292 129.247 20.483C128.91 20.7367 128.654 21.0909 128.48 21.5455C128.306 22 128.219 22.5303 128.219 23.1364ZM140.194 27.6761C139.335 27.6761 138.594 27.4924 137.973 27.125C137.355 26.7538 136.878 26.233 136.541 25.5625C136.208 24.8883 136.041 24.0985 136.041 23.1932C136.041 22.2992 136.208 21.5114 136.541 20.8295C136.878 20.1477 137.348 19.6155 137.95 19.233C138.556 18.8504 139.265 18.6591 140.075 18.6591C140.568 18.6591 141.045 18.7405 141.507 18.9034C141.969 19.0663 142.384 19.322 142.751 19.6705C143.119 20.0189 143.408 20.4716 143.621 21.0284C143.833 21.5814 143.939 22.2538 143.939 23.0455V23.6477H137.001V22.375H142.274C142.274 21.928 142.183 21.5322 142.001 21.1875C141.819 20.839 141.564 20.5644 141.234 20.3636C140.908 20.1629 140.526 20.0625 140.086 20.0625C139.609 20.0625 139.193 20.1799 138.836 20.4148C138.484 20.6458 138.211 20.9489 138.018 21.3239C137.829 21.6951 137.734 22.0985 137.734 22.5341V23.5284C137.734 24.1117 137.836 24.608 138.041 25.017C138.249 25.4261 138.539 25.7386 138.91 25.9545C139.282 26.1667 139.715 26.2727 140.211 26.2727C140.533 26.2727 140.827 26.2273 141.092 26.1364C141.357 26.0417 141.586 25.9015 141.78 25.7159C141.973 25.5303 142.121 25.3011 142.223 25.0284L143.831 25.3182C143.702 25.7917 143.471 26.2064 143.138 26.5625C142.808 26.9148 142.393 27.1894 141.893 27.3864C141.397 27.5795 140.831 27.6761 140.194 27.6761ZM145.824 27.5V18.7727H147.466V20.1591H147.557C147.716 19.6894 147.996 19.3201 148.398 19.0511C148.803 18.7784 149.261 18.642 149.773 18.642C149.879 18.642 150.004 18.6458 150.148 18.6534C150.295 18.661 150.411 18.6705 150.494 18.6818V20.3068C150.426 20.2879 150.305 20.267 150.131 20.2443C149.956 20.2178 149.782 20.2045 149.608 20.2045C149.206 20.2045 148.848 20.2898 148.534 20.4602C148.223 20.6269 147.977 20.8598 147.795 21.1591C147.613 21.4545 147.523 21.7917 147.523 22.1705V27.5H145.824ZM158.504 20.9034L156.964 21.1761C156.9 20.9792 156.798 20.7917 156.657 20.6136C156.521 20.4356 156.336 20.2898 156.101 20.1761C155.866 20.0625 155.572 20.0057 155.22 20.0057C154.739 20.0057 154.337 20.1136 154.015 20.3295C153.693 20.5417 153.532 20.8163 153.532 21.1534C153.532 21.4451 153.64 21.6799 153.856 21.858C154.072 22.036 154.421 22.1818 154.902 22.2955L156.288 22.6136C157.091 22.7992 157.69 23.0852 158.084 23.4716C158.478 23.858 158.675 24.3598 158.675 24.9773C158.675 25.5 158.523 25.9659 158.22 26.375C157.921 26.7803 157.502 27.0985 156.964 27.3295C156.43 27.5606 155.811 27.6761 155.106 27.6761C154.129 27.6761 153.332 27.4678 152.714 27.0511C152.097 26.6307 151.718 26.0341 151.578 25.2614L153.22 25.0114C153.322 25.4394 153.532 25.7633 153.851 25.983C154.169 26.1989 154.584 26.3068 155.095 26.3068C155.652 26.3068 156.097 26.1913 156.43 25.9602C156.764 25.7254 156.93 25.4394 156.93 25.1023C156.93 24.8295 156.828 24.6004 156.623 24.4148C156.423 24.2292 156.114 24.089 155.697 23.9943L154.22 23.6705C153.406 23.4848 152.803 23.1894 152.413 22.7841C152.027 22.3788 151.834 21.8655 151.834 21.2443C151.834 20.7292 151.978 20.2784 152.265 19.892C152.553 19.5057 152.951 19.2045 153.459 18.9886C153.966 18.7689 154.548 18.6591 155.203 18.6591C156.146 18.6591 156.889 18.8636 157.43 19.2727C157.972 19.678 158.33 20.2216 158.504 20.9034Z" fill="#43494F"/>
<g filter="url(#filter1_ddddd_4270_4177)">
<rect x="320.666" y="7.5" width="56" height="28" rx="6" fill="#39C569"/>
<rect x="320.666" y="7.5" width="56" height="28" rx="6" fill="url(#paint1_linear_4270_4177)" fill-opacity="0.2"/>
<rect x="321.666" y="8.5" width="54" height="26" rx="5" stroke="url(#paint2_linear_4270_4177)" stroke-opacity="0.3" stroke-width="2"/>
<path fill-rule="evenodd" clip-rule="evenodd" d="M336.159 17.7324C336.281 17.5901 336.463 17.5 336.665 17.5C336.848 17.5 337.013 17.573 337.133 17.6913L337.141 17.6992L339.803 20.3592C340.064 20.6196 340.064 21.0417 339.803 21.302C339.543 21.5624 339.12 21.5624 338.86 21.302L337.333 19.776V24.8333C337.333 25.2015 337.034 25.5 336.665 25.5C336.297 25.5 335.998 25.2015 335.998 24.8333V19.7788L334.471 21.3047C334.21 21.5651 333.788 21.5651 333.527 21.3047C333.267 21.0444 333.267 20.6223 333.527 20.3619L336.159 17.7324Z" fill="white"/>
<path d="M345.442 25.5V24.358L348.471 21.3878C348.761 21.0952 349.003 20.8352 349.196 20.608C349.389 20.3807 349.534 20.1605 349.631 19.9474C349.727 19.7344 349.775 19.5071 349.775 19.2656C349.775 18.9901 349.713 18.7543 349.588 18.5582C349.463 18.3594 349.291 18.206 349.072 18.098C348.854 17.9901 348.605 17.9361 348.327 17.9361C348.04 17.9361 347.788 17.9957 347.572 18.1151C347.356 18.2315 347.189 18.3977 347.069 18.6136C346.953 18.8295 346.895 19.0866 346.895 19.3849H345.39C345.39 18.831 345.517 18.3494 345.77 17.9403C346.023 17.5312 346.371 17.2145 346.814 16.9901C347.26 16.7656 347.771 16.6534 348.348 16.6534C348.933 16.6534 349.447 16.7628 349.89 16.9815C350.334 17.2003 350.677 17.5 350.922 17.8807C351.169 18.2614 351.292 18.696 351.292 19.1847C351.292 19.5114 351.23 19.8324 351.105 20.1477C350.98 20.4631 350.76 20.8125 350.444 21.196C350.132 21.5795 349.693 22.044 349.128 22.5895L347.623 24.1193V24.179H351.425V25.5H345.442ZM356.027 25.6193C355.413 25.6193 354.868 25.5142 354.39 25.304C353.916 25.0937 353.541 24.8011 353.265 24.4261C352.99 24.0511 352.844 23.6179 352.827 23.1264H354.429C354.443 23.3622 354.521 23.5682 354.663 23.7443C354.805 23.9176 354.994 24.0526 355.23 24.1491C355.466 24.2457 355.73 24.294 356.023 24.294C356.335 24.294 356.612 24.2401 356.854 24.1321C357.095 24.0213 357.284 23.8679 357.42 23.6719C357.557 23.4759 357.623 23.25 357.621 22.9943C357.623 22.7301 357.555 22.4972 357.416 22.2955C357.277 22.0937 357.075 21.9361 356.811 21.8224C356.55 21.7088 356.234 21.652 355.865 21.652H355.094V20.4332H355.865C356.169 20.4332 356.434 20.3807 356.662 20.2756C356.892 20.1705 357.072 20.0227 357.203 19.8324C357.334 19.6392 357.398 19.4162 357.395 19.1634C357.398 18.9162 357.342 18.7017 357.229 18.5199C357.118 18.3352 356.96 18.1918 356.756 18.0895C356.554 17.9872 356.317 17.9361 356.044 17.9361C355.777 17.9361 355.53 17.9844 355.302 18.081C355.075 18.1776 354.892 18.3153 354.753 18.4943C354.613 18.6705 354.54 18.8807 354.531 19.125H353.01C353.021 18.6364 353.162 18.2074 353.432 17.8381C353.704 17.4659 354.068 17.1761 354.523 16.9688C354.977 16.7585 355.487 16.6534 356.052 16.6534C356.635 16.6534 357.14 16.7628 357.569 16.9815C358.001 17.1974 358.335 17.4886 358.571 17.8551C358.807 18.2216 358.925 18.6264 358.925 19.0696C358.927 19.5611 358.782 19.973 358.49 20.3054C358.2 20.6378 357.819 20.8551 357.348 20.9574V21.0256C357.961 21.1108 358.432 21.3381 358.758 21.7074C359.088 22.0739 359.251 22.5298 359.248 23.0753C359.248 23.5639 359.109 24.0014 358.831 24.3878C358.555 24.7713 358.175 25.0724 357.689 25.2912C357.206 25.5099 356.652 25.6193 356.027 25.6193ZM365.377 23.8636V23.4034C365.377 23.0653 365.448 22.7543 365.59 22.4702C365.735 22.1861 365.945 21.9574 366.221 21.7841C366.497 21.6108 366.83 21.5241 367.222 21.5241C367.626 21.5241 367.964 21.6108 368.237 21.7841C368.509 21.9545 368.715 22.1818 368.855 22.4659C368.997 22.75 369.068 23.0625 369.068 23.4034V23.8636C369.068 24.2017 368.997 24.5128 368.855 24.7969C368.713 25.081 368.504 25.3097 368.228 25.483C367.955 25.6563 367.62 25.7429 367.222 25.7429C366.825 25.7429 366.488 25.6563 366.213 25.483C365.937 25.3097 365.728 25.081 365.586 24.7969C365.447 24.5128 365.377 24.2017 365.377 23.8636ZM366.49 23.4034V23.8636C366.49 24.0881 366.544 24.294 366.651 24.4815C366.759 24.669 366.95 24.7628 367.222 24.7628C367.498 24.7628 367.687 24.6705 367.789 24.4858C367.894 24.2983 367.947 24.0909 367.947 23.8636V23.4034C367.947 23.1761 367.897 22.9688 367.798 22.7812C367.698 22.5909 367.507 22.4957 367.222 22.4957C366.955 22.4957 366.767 22.5909 366.656 22.7812C366.545 22.9688 366.49 23.1761 366.49 23.4034ZM360.941 18.8693V18.4091C360.941 18.0682 361.014 17.7557 361.159 17.4716C361.303 17.1875 361.514 16.9602 361.789 16.7898C362.065 16.6165 362.399 16.5298 362.791 16.5298C363.191 16.5298 363.528 16.6165 363.801 16.7898C364.076 16.9602 364.284 17.1875 364.423 17.4716C364.562 17.7557 364.632 18.0682 364.632 18.4091V18.8693C364.632 19.2102 364.561 19.5227 364.419 19.8068C364.279 20.0881 364.072 20.3139 363.796 20.4844C363.521 20.6548 363.186 20.7401 362.791 20.7401C362.39 20.7401 362.052 20.6548 361.776 20.4844C361.504 20.3139 361.296 20.0866 361.154 19.8026C361.012 19.5185 360.941 19.2074 360.941 18.8693ZM362.062 18.4091V18.8693C362.062 19.0966 362.115 19.304 362.22 19.4915C362.328 19.6761 362.518 19.7685 362.791 19.7685C363.063 19.7685 363.251 19.6761 363.353 19.4915C363.458 19.304 363.511 19.0966 363.511 18.8693V18.4091C363.511 18.1818 363.461 17.9744 363.362 17.7869C363.262 17.5966 363.072 17.5014 362.791 17.5014C362.521 17.5014 362.332 17.5966 362.224 17.7869C362.116 17.9773 362.062 18.1847 362.062 18.4091ZM361.427 25.5L367.427 16.7727H368.492L362.492 25.5H361.427Z" fill="white"/>
</g>
<mask id="path-10-inside-2_4270_4177" fill="white">
<path d="M19.666 61.5H382.666V105.5H19.666V61.5Z"/>
</mask>
<path d="M382.666 104.5H19.666V106.5H382.666V104.5Z" fill="#E1E1E1" mask="url(#path-10-inside-2_4270_4177)"/>
<g filter="url(#filter2_ddd_4270_4177)">
<rect x="25.666" y="61.5" width="32" height="32" rx="16" fill="white"/>
<rect x="25.666" y="61.5" width="32" height="32" rx="16" fill="url(#paint3_linear_4270_4177)" fill-opacity="0.1"/>
<path fill-rule="evenodd" clip-rule="evenodd" d="M36.4029 77.3592C36.7285 76.7953 37.3704 75.8121 38.285 74.9771C39.1999 74.1419 40.335 73.5013 41.6647 73.5013C42.9945 73.5013 44.1295 74.1419 45.0444 74.9771C45.959 75.8121 46.601 76.7953 46.9265 77.3592C46.9481 77.3965 46.9632 77.4227 46.9759 77.4455C46.9879 77.4671 46.9942 77.4795 46.9977 77.4869C46.9979 77.491 46.998 77.4959 46.998 77.5013C46.998 77.5067 46.9979 77.5116 46.9977 77.5157C46.9942 77.5231 46.9879 77.5355 46.9759 77.5571C46.9632 77.5799 46.9481 77.6061 46.9265 77.6434C46.601 78.2073 45.959 79.1905 45.0444 80.0255C44.1295 80.8607 42.9945 81.5013 41.6647 81.5013C40.335 81.5013 39.1999 80.8607 38.285 80.0255C37.3704 79.1905 36.7285 78.2073 36.4029 77.6434C36.3814 77.6061 36.3662 77.5799 36.3536 77.5571C36.3416 77.5355 36.3353 77.5231 36.3317 77.5157C36.3315 77.5116 36.3314 77.5067 36.3314 77.5013C36.3314 77.4959 36.3315 77.491 36.3317 77.4869C36.3353 77.4795 36.3416 77.4671 36.3536 77.4455C36.3662 77.4227 36.3814 77.3965 36.4029 77.3592ZM41.6647 72.168C39.883 72.168 38.4414 73.029 37.3861 73.9924C36.3305 74.956 35.6086 76.0684 35.2482 76.6925L35.234 76.717C35.1615 76.8419 35.0709 76.9981 35.0253 77.2156C34.989 77.3891 34.989 77.6135 35.0253 77.787C35.0709 78.0046 35.1615 78.1607 35.234 78.2856L35.2482 78.3101C35.6086 78.9342 36.3305 80.0466 37.3861 81.0102C38.4414 81.9736 39.883 82.8346 41.6647 82.8346C43.4465 82.8346 44.888 81.9736 45.9434 81.0102C46.999 80.0466 47.7209 78.9342 48.0812 78.3101L48.0954 78.2856C48.1679 78.1607 48.2585 78.0045 48.3041 77.787C48.3405 77.6135 48.3405 77.3891 48.3041 77.2156C48.2585 76.9981 48.1679 76.8419 48.0954 76.717L48.0812 76.6925C47.7209 76.0684 46.999 74.956 45.9434 73.9924C44.888 73.029 43.4465 72.168 41.6647 72.168ZM42.998 77.5013C42.998 78.2377 42.4011 78.8346 41.6647 78.8346C40.9283 78.8346 40.3314 78.2377 40.3314 77.5013C40.3314 76.7649 40.9283 76.168 41.6647 76.168C42.4011 76.168 42.998 76.7649 42.998 77.5013ZM44.3314 77.5013C44.3314 76.0285 43.1375 74.8346 41.6647 74.8346C40.192 74.8346 38.998 76.0285 38.998 77.5013C38.998 78.9741 40.192 80.168 41.6647 80.168C43.1375 80.168 44.3314 78.9741 44.3314 77.5013Z" fill="#43494F"/>
</g>
<path d="M69.9615 71.8636L73.2001 81.3409H73.3308L76.5694 71.8636H78.4672L74.2797 83.5H72.2512L68.0637 71.8636H69.9615ZM80.0112 83.5V74.7727H81.71V83.5H80.0112ZM80.8691 73.4261C80.5737 73.4261 80.3199 73.3277 80.1078 73.1307C79.8994 72.9299 79.7953 72.6913 79.7953 72.4148C79.7953 72.1345 79.8994 71.8958 80.1078 71.6989C80.3199 71.4981 80.5737 71.3977 80.8691 71.3977C81.1646 71.3977 81.4165 71.4981 81.6248 71.6989C81.8369 71.8958 81.943 72.1345 81.943 72.4148C81.943 72.6913 81.8369 72.9299 81.6248 73.1307C81.4165 73.3277 81.1646 73.4261 80.8691 73.4261ZM87.7569 83.6761C86.8971 83.6761 86.1565 83.4924 85.5353 83.125C84.9179 82.7538 84.4406 82.233 84.1035 81.5625C83.7702 80.8883 83.6035 80.0985 83.6035 79.1932C83.6035 78.2992 83.7702 77.5114 84.1035 76.8295C84.4406 76.1477 84.9103 75.6155 85.5126 75.233C86.1187 74.8504 86.827 74.6591 87.6376 74.6591C88.13 74.6591 88.6073 74.7405 89.0694 74.9034C89.5315 75.0663 89.9463 75.322 90.3137 75.6705C90.6812 76.0189 90.9709 76.4716 91.1831 77.0284C91.3952 77.5814 91.5012 78.2538 91.5012 79.0455V79.6477H84.5637V78.375H89.8365C89.8365 77.928 89.7456 77.5322 89.5637 77.1875C89.3819 76.839 89.1262 76.5644 88.7967 76.3636C88.4709 76.1629 88.0884 76.0625 87.649 76.0625C87.1717 76.0625 86.755 76.1799 86.399 76.4148C86.0467 76.6458 85.774 76.9489 85.5808 77.3239C85.3914 77.6951 85.2967 78.0985 85.2967 78.5341V79.5284C85.2967 80.1117 85.399 80.608 85.6035 81.017C85.8118 81.4261 86.1016 81.7386 86.4728 81.9545C86.844 82.1667 87.2778 82.2727 87.774 82.2727C88.0959 82.2727 88.3895 82.2273 88.6547 82.1364C88.9198 82.0417 89.149 81.9015 89.3422 81.7159C89.5353 81.5303 89.6831 81.3011 89.7853 81.0284L91.3933 81.3182C91.2645 81.7917 91.0334 82.2064 90.7001 82.5625C90.3706 82.9148 89.9558 83.1894 89.4558 83.3864C88.9596 83.5795 88.3933 83.6761 87.7569 83.6761ZM95.2626 83.5L92.6944 74.7727H94.4501L96.1603 81.1818H96.2456L97.9615 74.7727H99.7172L101.422 81.1534H101.507L103.206 74.7727H104.961L102.399 83.5H100.666L98.8933 77.1989H98.7626L96.9899 83.5H95.2626ZM113.113 76.9034L111.574 77.1761C111.509 76.9792 111.407 76.7917 111.267 76.6136C111.131 76.4356 110.945 76.2898 110.71 76.1761C110.475 76.0625 110.182 76.0057 109.829 76.0057C109.348 76.0057 108.947 76.1136 108.625 76.3295C108.303 76.5417 108.142 76.8163 108.142 77.1534C108.142 77.4451 108.25 77.6799 108.466 77.858C108.682 78.036 109.03 78.1818 109.511 78.2955L110.898 78.6136C111.701 78.7992 112.299 79.0852 112.693 79.4716C113.087 79.858 113.284 80.3598 113.284 80.9773C113.284 81.5 113.132 81.9659 112.829 82.375C112.53 82.7803 112.112 83.0985 111.574 83.3295C111.04 83.5606 110.42 83.6761 109.716 83.6761C108.738 83.6761 107.941 83.4678 107.324 83.0511C106.706 82.6307 106.327 82.0341 106.187 81.2614L107.829 81.0114C107.932 81.4394 108.142 81.7633 108.46 81.983C108.778 82.1989 109.193 82.3068 109.704 82.3068C110.261 82.3068 110.706 82.1913 111.04 81.9602C111.373 81.7254 111.54 81.4394 111.54 81.1023C111.54 80.8295 111.437 80.6004 111.233 80.4148C111.032 80.2292 110.723 80.089 110.307 79.9943L108.829 79.6705C108.015 79.4848 107.413 79.1894 107.023 78.7841C106.636 78.3788 106.443 77.8655 106.443 77.2443C106.443 76.7292 106.587 76.2784 106.875 75.892C107.163 75.5057 107.56 75.2045 108.068 74.9886C108.576 74.7689 109.157 74.6591 109.812 74.6591C110.756 74.6591 111.498 74.8636 112.04 75.2727C112.581 75.678 112.939 76.2216 113.113 76.9034Z" fill="#43494F"/>
<g filter="url(#filter3_ddddd_4270_4177)">
<rect x="320.666" y="63.5" width="56" height="28" rx="6" fill="#E91919"/>
<rect x="320.666" y="63.5" width="56" height="28" rx="6" fill="url(#paint4_linear_4270_4177)" fill-opacity="0.2"/>
<rect x="321.666" y="64.5" width="54" height="26" rx="5" stroke="url(#paint5_linear_4270_4177)" stroke-opacity="0.3" stroke-width="2"/>
<path fill-rule="evenodd" clip-rule="evenodd" d="M337.172 81.2676C337.049 81.4099 336.868 81.5 336.665 81.5C336.483 81.5 336.318 81.427 336.198 81.3087L336.19 81.3008L333.527 78.6408C333.267 78.3804 333.267 77.9583 333.527 77.698C333.788 77.4376 334.21 77.4376 334.471 77.698L335.998 79.224L335.998 74.1667C335.998 73.7985 336.297 73.5 336.665 73.5C337.034 73.5 337.333 73.7985 337.333 74.1667L337.333 79.2212L338.86 77.6953C339.12 77.4349 339.543 77.4349 339.803 77.6953C340.064 77.9556 340.064 78.3777 339.803 78.6381L337.172 81.2676Z" fill="white"/>
<path d="M348.991 72.7727V81.5H347.41V74.3111H347.359L345.318 75.6151V74.1662L347.487 72.7727H348.991ZM354.403 81.6193C353.986 81.6165 353.578 81.544 353.18 81.402C352.782 81.2571 352.425 81.0227 352.106 80.6989C351.788 80.3722 351.535 79.9389 351.348 79.3991C351.16 78.8565 351.068 78.1847 351.071 77.3835C351.071 76.6364 351.15 75.9702 351.309 75.3849C351.469 74.7997 351.697 74.3054 351.996 73.902C352.294 73.4957 352.653 73.1861 353.074 72.973C353.497 72.7599 353.97 72.6534 354.493 72.6534C355.041 72.6534 355.527 72.7614 355.95 72.9773C356.376 73.1932 356.72 73.4886 356.981 73.8636C357.243 74.2358 357.405 74.6562 357.467 75.125H355.912C355.832 74.7898 355.669 74.5227 355.422 74.3239C355.177 74.1222 354.868 74.0213 354.493 74.0213C353.888 74.0213 353.422 74.2841 353.095 74.8097C352.771 75.3352 352.608 76.0568 352.605 76.9744H352.665C352.804 76.7244 352.984 76.5099 353.206 76.331C353.427 76.152 353.677 76.0142 353.956 75.9176C354.237 75.8182 354.534 75.7685 354.846 75.7685C355.358 75.7685 355.817 75.8906 356.223 76.1349C356.632 76.3793 356.956 76.7159 357.194 77.1449C357.433 77.571 357.551 78.0597 357.548 78.6108C357.551 79.1847 357.42 79.7003 357.156 80.1577C356.892 80.6122 356.524 80.9702 356.052 81.2315C355.581 81.4929 355.031 81.6222 354.403 81.6193ZM354.395 80.3409C354.704 80.3409 354.981 80.2656 355.226 80.1151C355.47 79.9645 355.663 79.7614 355.805 79.5057C355.947 79.25 356.017 78.9631 356.014 78.6449C356.017 78.3324 355.949 78.0497 355.809 77.7969C355.673 77.544 355.484 77.3437 355.243 77.196C355.001 77.0483 354.726 76.9744 354.416 76.9744C354.186 76.9744 353.971 77.0185 353.773 77.1065C353.574 77.1946 353.4 77.3168 353.253 77.473C353.105 77.6264 352.988 77.8054 352.903 78.0099C352.821 78.2116 352.778 78.4276 352.775 78.6577C352.778 78.9616 352.849 79.2415 352.988 79.4972C353.128 79.7528 353.319 79.9574 353.564 80.1108C353.808 80.2642 354.085 80.3409 354.395 80.3409ZM363.655 79.8636V79.4034C363.655 79.0653 363.726 78.7543 363.868 78.4702C364.013 78.1861 364.223 77.9574 364.498 77.7841C364.774 77.6108 365.108 77.5241 365.5 77.5241C365.903 77.5241 366.241 77.6108 366.514 77.7841C366.787 77.9545 366.993 78.1818 367.132 78.4659C367.274 78.75 367.345 79.0625 367.345 79.4034V79.8636C367.345 80.2017 367.274 80.5128 367.132 80.7969C366.99 81.081 366.781 81.3097 366.506 81.483C366.233 81.6563 365.898 81.7429 365.5 81.7429C365.102 81.7429 364.765 81.6563 364.49 81.483C364.214 81.3097 364.006 81.081 363.863 80.7969C363.724 80.5128 363.655 80.2017 363.655 79.8636ZM364.767 79.4034V79.8636C364.767 80.0881 364.821 80.294 364.929 80.4815C365.037 80.669 365.227 80.7628 365.5 80.7628C365.775 80.7628 365.964 80.6705 366.067 80.4858C366.172 80.2983 366.224 80.0909 366.224 79.8636V79.4034C366.224 79.1761 366.175 78.9688 366.075 78.7812C365.976 78.5909 365.784 78.4957 365.5 78.4957C365.233 78.4957 365.044 78.5909 364.933 78.7812C364.822 78.9688 364.767 79.1761 364.767 79.4034ZM359.219 74.8693V74.4091C359.219 74.0682 359.291 73.7557 359.436 73.4716C359.581 73.1875 359.791 72.9602 360.067 72.7898C360.342 72.6165 360.676 72.5298 361.068 72.5298C361.469 72.5298 361.805 72.6165 362.078 72.7898C362.354 72.9602 362.561 73.1875 362.7 73.4716C362.839 73.7557 362.909 74.0682 362.909 74.4091V74.8693C362.909 75.2102 362.838 75.5227 362.696 75.8068C362.557 76.0881 362.349 76.3139 362.074 76.4844C361.798 76.6548 361.463 76.7401 361.068 76.7401C360.667 76.7401 360.329 76.6548 360.054 76.4844C359.781 76.3139 359.574 76.0866 359.432 75.8026C359.29 75.5185 359.219 75.2074 359.219 74.8693ZM360.339 74.4091V74.8693C360.339 75.0966 360.392 75.304 360.497 75.4915C360.605 75.6761 360.795 75.7685 361.068 75.7685C361.341 75.7685 361.528 75.6761 361.631 75.4915C361.736 75.304 361.788 75.0966 361.788 74.8693V74.4091C361.788 74.1818 361.738 73.9744 361.639 73.7869C361.54 73.5966 361.349 73.5014 361.068 73.5014C360.798 73.5014 360.609 73.5966 360.501 73.7869C360.393 73.9773 360.339 74.1847 360.339 74.4091ZM359.704 81.5L365.704 72.7727H366.77L360.77 81.5H359.704Z" fill="white"/>
</g>
<g filter="url(#filter4_ddd_4270_4177)">
<rect x="25.666" y="117.5" width="32" height="32" rx="16" fill="white"/>
<rect x="25.666" y="117.5" width="32" height="32" rx="16" fill="url(#paint6_linear_4270_4177)" fill-opacity="0.1"/>
<path fill-rule="evenodd" clip-rule="evenodd" d="M35.7314 128.832C35.3264 128.832 34.998 129.16 34.998 129.565V137.432C34.998 137.837 35.3264 138.165 35.7314 138.165H40.3314C40.6996 138.165 40.998 137.867 40.998 137.499C40.998 137.131 40.6996 136.832 40.3314 136.832H36.3314V134.165H40.3314C40.6996 134.165 40.998 133.867 40.998 133.499C40.998 133.131 40.6996 132.832 40.3314 132.832H36.3314V130.165H40.3314C40.6996 130.165 40.998 129.867 40.998 129.499C40.998 129.131 40.6996 128.832 40.3314 128.832H35.7314ZM42.3397 128.832C41.9669 128.832 41.6647 129.134 41.6647 129.507V137.499C41.6647 137.867 41.9632 138.165 42.3314 138.165C42.6996 138.165 42.998 137.867 42.998 137.499V134.832H44.7499C45.7599 135.72 46.1421 136.33 46.7199 137.252C46.8376 137.44 46.9634 137.641 47.1042 137.86C47.3036 138.169 47.7162 138.259 48.0257 138.059C48.3353 137.86 48.4246 137.447 48.2252 137.138C48.0954 136.936 47.9761 136.745 47.8613 136.562C47.4294 135.871 47.0614 135.283 46.4448 134.619C47.5503 134.177 48.3314 133.095 48.3314 131.832C48.3314 130.175 46.9882 128.832 45.3314 128.832H42.3397ZM45.3314 133.499H42.998V130.165H45.3314C46.2519 130.165 46.998 130.912 46.998 131.832C46.998 132.753 46.2519 133.499 45.3314 133.499Z" fill="#43494F"/>
</g>
<path d="M68.9444 139.5V127.864H76.2399V129.375H70.7001V132.92H75.8592V134.426H70.7001V137.989H76.3081V139.5H68.9444ZM80.1475 134.318V139.5H78.4487V130.773H80.0794V132.193H80.1873C80.3881 131.731 80.7025 131.36 81.1305 131.08C81.5623 130.799 82.1059 130.659 82.7612 130.659C83.3559 130.659 83.8767 130.784 84.3237 131.034C84.7707 131.28 85.1172 131.648 85.3635 132.136C85.6097 132.625 85.7328 133.229 85.7328 133.949V139.5H84.0339V134.153C84.0339 133.521 83.8691 133.027 83.5396 132.67C83.21 132.311 82.7574 132.131 82.1816 132.131C81.7877 132.131 81.4373 132.216 81.1305 132.386C80.8275 132.557 80.5869 132.807 80.4089 133.136C80.2347 133.462 80.1475 133.856 80.1475 134.318ZM91.6703 142.955C90.9771 142.955 90.3805 142.864 89.8805 142.682C89.3843 142.5 88.979 142.259 88.6646 141.96C88.3502 141.661 88.1154 141.333 87.96 140.977L89.4203 140.375C89.5225 140.542 89.6589 140.718 89.8294 140.903C90.0036 141.093 90.2385 141.254 90.5339 141.386C90.8332 141.519 91.2176 141.585 91.6873 141.585C92.3313 141.585 92.8635 141.428 93.2839 141.114C93.7044 140.803 93.9146 140.307 93.9146 139.625V137.909H93.8066C93.7044 138.095 93.5566 138.301 93.3635 138.528C93.1741 138.756 92.9127 138.953 92.5794 139.119C92.246 139.286 91.8123 139.369 91.2782 139.369C90.5888 139.369 89.9676 139.208 89.4146 138.886C88.8654 138.561 88.4297 138.081 88.1078 137.449C87.7896 136.812 87.6305 136.03 87.6305 135.102C87.6305 134.174 87.7877 133.379 88.1021 132.716C88.4203 132.053 88.8559 131.545 89.4089 131.193C89.9619 130.837 90.5888 130.659 91.2896 130.659C91.8313 130.659 92.2688 130.75 92.6021 130.932C92.9354 131.11 93.1949 131.318 93.3805 131.557C93.5699 131.795 93.7157 132.006 93.818 132.188H93.943V130.773H95.6078V139.693C95.6078 140.443 95.4335 141.059 95.085 141.54C94.7366 142.021 94.265 142.377 93.6703 142.608C93.0794 142.839 92.4127 142.955 91.6703 142.955ZM91.6532 137.96C92.1419 137.96 92.5547 137.847 92.8919 137.619C93.2328 137.388 93.4904 137.059 93.6646 136.631C93.8426 136.199 93.9316 135.682 93.9316 135.08C93.9316 134.492 93.8445 133.975 93.6703 133.528C93.496 133.081 93.2404 132.733 92.9032 132.483C92.5661 132.229 92.1494 132.102 91.6532 132.102C91.1419 132.102 90.7157 132.235 90.3748 132.5C90.0339 132.761 89.7763 133.117 89.6021 133.568C89.4316 134.019 89.3464 134.523 89.3464 135.08C89.3464 135.652 89.4335 136.153 89.6078 136.585C89.782 137.017 90.0396 137.354 90.3805 137.597C90.7252 137.839 91.1494 137.96 91.6532 137.96ZM100.426 139.693C99.8729 139.693 99.3729 139.591 98.926 139.386C98.479 139.178 98.1248 138.877 97.8635 138.483C97.6059 138.089 97.4771 137.606 97.4771 137.034C97.4771 136.542 97.5718 136.136 97.7612 135.818C97.9506 135.5 98.2063 135.248 98.5282 135.062C98.8502 134.877 99.21 134.737 99.6078 134.642C100.006 134.547 100.411 134.475 100.824 134.426C101.346 134.366 101.771 134.316 102.096 134.278C102.422 134.237 102.659 134.17 102.807 134.08C102.954 133.989 103.028 133.841 103.028 133.636V133.597C103.028 133.1 102.888 132.716 102.608 132.443C102.331 132.17 101.918 132.034 101.369 132.034C100.797 132.034 100.346 132.161 100.017 132.415C99.6911 132.665 99.4657 132.943 99.3407 133.25L97.7441 132.886C97.9335 132.356 98.21 131.928 98.5737 131.602C98.9411 131.273 99.3635 131.034 99.8407 130.886C100.318 130.735 100.82 130.659 101.346 130.659C101.695 130.659 102.064 130.701 102.454 130.784C102.848 130.864 103.216 131.011 103.557 131.227C103.901 131.443 104.184 131.752 104.403 132.153C104.623 132.551 104.733 133.068 104.733 133.705V139.5H103.074V138.307H103.006C102.896 138.527 102.731 138.742 102.511 138.955C102.291 139.167 102.009 139.343 101.665 139.483C101.32 139.623 100.907 139.693 100.426 139.693ZM100.795 138.33C101.265 138.33 101.666 138.237 102 138.051C102.337 137.866 102.593 137.623 102.767 137.324C102.945 137.021 103.034 136.697 103.034 136.352V135.227C102.973 135.288 102.856 135.345 102.682 135.398C102.511 135.447 102.316 135.491 102.096 135.528C101.877 135.562 101.663 135.595 101.454 135.625C101.246 135.652 101.072 135.674 100.932 135.693C100.602 135.735 100.301 135.805 100.028 135.903C99.7593 136.002 99.5434 136.144 99.3805 136.33C99.2214 136.511 99.1419 136.754 99.1419 137.057C99.1419 137.477 99.2972 137.795 99.6078 138.011C99.9184 138.223 100.314 138.33 100.795 138.33ZM110.655 142.955C109.961 142.955 109.365 142.864 108.865 142.682C108.369 142.5 107.963 142.259 107.649 141.96C107.335 141.661 107.1 141.333 106.944 140.977L108.405 140.375C108.507 140.542 108.643 140.718 108.814 140.903C108.988 141.093 109.223 141.254 109.518 141.386C109.818 141.519 110.202 141.585 110.672 141.585C111.316 141.585 111.848 141.428 112.268 141.114C112.689 140.803 112.899 140.307 112.899 139.625V137.909H112.791C112.689 138.095 112.541 138.301 112.348 138.528C112.158 138.756 111.897 138.953 111.564 139.119C111.23 139.286 110.797 139.369 110.263 139.369C109.573 139.369 108.952 139.208 108.399 138.886C107.85 138.561 107.414 138.081 107.092 137.449C106.774 136.812 106.615 136.03 106.615 135.102C106.615 134.174 106.772 133.379 107.086 132.716C107.405 132.053 107.84 131.545 108.393 131.193C108.946 130.837 109.573 130.659 110.274 130.659C110.816 130.659 111.253 130.75 111.586 130.932C111.92 131.11 112.179 131.318 112.365 131.557C112.554 131.795 112.7 132.006 112.802 132.188H112.927V130.773H114.592V139.693C114.592 140.443 114.418 141.059 114.069 141.54C113.721 142.021 113.249 142.377 112.655 142.608C112.064 142.839 111.397 142.955 110.655 142.955ZM110.638 137.96C111.126 137.96 111.539 137.847 111.876 137.619C112.217 137.388 112.475 137.059 112.649 136.631C112.827 136.199 112.916 135.682 112.916 135.08C112.916 134.492 112.829 133.975 112.655 133.528C112.48 133.081 112.225 132.733 111.888 132.483C111.55 132.229 111.134 132.102 110.638 132.102C110.126 132.102 109.7 132.235 109.359 132.5C109.018 132.761 108.761 133.117 108.586 133.568C108.416 134.019 108.331 134.523 108.331 135.08C108.331 135.652 108.418 136.153 108.592 136.585C108.766 137.017 109.024 137.354 109.365 137.597C109.71 137.839 110.134 137.96 110.638 137.96ZM120.632 139.676C119.772 139.676 119.032 139.492 118.41 139.125C117.793 138.754 117.316 138.233 116.979 137.562C116.645 136.888 116.479 136.098 116.479 135.193C116.479 134.299 116.645 133.511 116.979 132.83C117.316 132.148 117.785 131.616 118.388 131.233C118.994 130.85 119.702 130.659 120.513 130.659C121.005 130.659 121.482 130.741 121.944 130.903C122.407 131.066 122.821 131.322 123.189 131.67C123.556 132.019 123.846 132.472 124.058 133.028C124.27 133.581 124.376 134.254 124.376 135.045V135.648H117.439V134.375H122.711C122.711 133.928 122.621 133.532 122.439 133.188C122.257 132.839 122.001 132.564 121.672 132.364C121.346 132.163 120.963 132.062 120.524 132.062C120.047 132.062 119.63 132.18 119.274 132.415C118.922 132.646 118.649 132.949 118.456 133.324C118.266 133.695 118.172 134.098 118.172 134.534V135.528C118.172 136.112 118.274 136.608 118.479 137.017C118.687 137.426 118.977 137.739 119.348 137.955C119.719 138.167 120.153 138.273 120.649 138.273C120.971 138.273 121.265 138.227 121.53 138.136C121.795 138.042 122.024 137.902 122.217 137.716C122.41 137.53 122.558 137.301 122.66 137.028L124.268 137.318C124.14 137.792 123.908 138.206 123.575 138.562C123.246 138.915 122.831 139.189 122.331 139.386C121.835 139.58 121.268 139.676 120.632 139.676ZM126.261 139.5V130.773H127.892V132.193H128C128.182 131.712 128.479 131.337 128.892 131.068C129.305 130.795 129.799 130.659 130.375 130.659C130.958 130.659 131.447 130.795 131.841 131.068C132.238 131.341 132.532 131.716 132.721 132.193H132.812C133.021 131.727 133.352 131.356 133.807 131.08C134.261 130.799 134.803 130.659 135.432 130.659C136.223 130.659 136.869 130.907 137.369 131.403C137.873 131.9 138.125 132.648 138.125 133.648V139.5H136.426V133.807C136.426 133.216 136.265 132.788 135.943 132.523C135.621 132.258 135.237 132.125 134.79 132.125C134.237 132.125 133.807 132.295 133.5 132.636C133.193 132.973 133.04 133.407 133.04 133.938V139.5H131.346V133.699C131.346 133.225 131.199 132.845 130.903 132.557C130.608 132.269 130.223 132.125 129.75 132.125C129.428 132.125 129.131 132.21 128.858 132.381C128.589 132.547 128.371 132.78 128.204 133.08C128.041 133.379 127.96 133.725 127.96 134.119V139.5H126.261ZM144.163 139.676C143.303 139.676 142.563 139.492 141.942 139.125C141.324 138.754 140.847 138.233 140.51 137.562C140.176 136.888 140.01 136.098 140.01 135.193C140.01 134.299 140.176 133.511 140.51 132.83C140.847 132.148 141.317 131.616 141.919 131.233C142.525 130.85 143.233 130.659 144.044 130.659C144.536 130.659 145.014 130.741 145.476 130.903C145.938 131.066 146.353 131.322 146.72 131.67C147.087 132.019 147.377 132.472 147.589 133.028C147.801 133.581 147.907 134.254 147.907 135.045V135.648H140.97V134.375H146.243C146.243 133.928 146.152 133.532 145.97 133.188C145.788 132.839 145.532 132.564 145.203 132.364C144.877 132.163 144.495 132.062 144.055 132.062C143.578 132.062 143.161 132.18 142.805 132.415C142.453 132.646 142.18 132.949 141.987 133.324C141.798 133.695 141.703 134.098 141.703 134.534V135.528C141.703 136.112 141.805 136.608 142.01 137.017C142.218 137.426 142.508 137.739 142.879 137.955C143.25 138.167 143.684 138.273 144.18 138.273C144.502 138.273 144.796 138.227 145.061 138.136C145.326 138.042 145.555 137.902 145.748 137.716C145.942 137.53 146.089 137.301 146.192 137.028L147.8 137.318C147.671 137.792 147.44 138.206 147.106 138.562C146.777 138.915 146.362 139.189 145.862 139.386C145.366 139.58 144.8 139.676 144.163 139.676ZM151.491 134.318V139.5H149.792V130.773H151.423V132.193H151.531C151.732 131.731 152.046 131.36 152.474 131.08C152.906 130.799 153.45 130.659 154.105 130.659C154.7 130.659 155.22 130.784 155.667 131.034C156.114 131.28 156.461 131.648 156.707 132.136C156.953 132.625 157.077 133.229 157.077 133.949V139.5H155.378V134.153C155.378 133.521 155.213 133.027 154.883 132.67C154.554 132.311 154.101 132.131 153.525 132.131C153.131 132.131 152.781 132.216 152.474 132.386C152.171 132.557 151.931 132.807 151.753 133.136C151.578 133.462 151.491 133.856 151.491 134.318ZM163.429 130.773V132.136H158.662V130.773H163.429ZM159.94 128.682H161.639V136.938C161.639 137.267 161.688 137.515 161.787 137.682C161.885 137.845 162.012 137.956 162.167 138.017C162.327 138.074 162.499 138.102 162.684 138.102C162.821 138.102 162.94 138.093 163.042 138.074C163.145 138.055 163.224 138.04 163.281 138.028L163.588 139.432C163.489 139.47 163.349 139.508 163.167 139.545C162.986 139.587 162.758 139.61 162.486 139.614C162.039 139.621 161.622 139.542 161.236 139.375C160.849 139.208 160.537 138.951 160.298 138.602C160.059 138.254 159.94 137.816 159.94 137.29V128.682Z" fill="#43494F"/>
<g filter="url(#filter5_ddddd_4270_4177)">
<rect x="320.666" y="119.5" width="56" height="28" rx="6" fill="#39C569"/>
<rect x="320.666" y="119.5" width="56" height="28" rx="6" fill="url(#paint7_linear_4270_4177)" fill-opacity="0.2"/>
<rect x="321.666" y="120.5" width="54" height="26" rx="5" stroke="url(#paint8_linear_4270_4177)" stroke-opacity="0.3" stroke-width="2"/>
<path fill-rule="evenodd" clip-rule="evenodd" d="M336.159 129.732C336.281 129.59 336.463 129.5 336.665 129.5C336.848 129.5 337.013 129.573 337.133 129.691L337.141 129.699L339.803 132.359C340.064 132.62 340.064 133.042 339.803 133.302C339.543 133.562 339.12 133.562 338.86 133.302L337.333 131.776V136.833C337.333 137.202 337.034 137.5 336.665 137.5C336.297 137.5 335.998 137.202 335.998 136.833V131.779L334.471 133.305C334.21 133.565 333.788 133.565 333.527 133.305C333.267 133.044 333.267 132.622 333.527 132.362L336.159 129.732Z" fill="white"/>
<path d="M348.991 128.773V137.5H347.41V130.311H347.359L345.318 131.615V130.166L347.487 128.773H348.991ZM354.433 137.666C353.731 137.666 353.129 137.489 352.626 137.134C352.126 136.776 351.741 136.26 351.471 135.587C351.204 134.911 351.071 134.097 351.071 133.145C351.074 132.193 351.209 131.384 351.476 130.716C351.746 130.045 352.131 129.534 352.631 129.182C353.133 128.83 353.734 128.653 354.433 128.653C355.132 128.653 355.733 128.83 356.236 129.182C356.738 129.534 357.123 130.045 357.39 130.716C357.66 131.386 357.795 132.196 357.795 133.145C357.795 134.099 357.66 134.915 357.39 135.591C357.123 136.264 356.738 136.778 356.236 137.134C355.736 137.489 355.135 137.666 354.433 137.666ZM354.433 136.332C354.979 136.332 355.409 136.064 355.724 135.527C356.042 134.987 356.202 134.193 356.202 133.145C356.202 132.452 356.129 131.869 355.984 131.398C355.839 130.926 355.635 130.571 355.371 130.332C355.106 130.091 354.794 129.97 354.433 129.97C353.89 129.97 353.461 130.24 353.146 130.78C352.831 131.317 352.672 132.105 352.669 133.145C352.666 133.841 352.736 134.426 352.878 134.901C353.023 135.375 353.227 135.733 353.491 135.974C353.756 136.213 354.069 136.332 354.433 136.332ZM363.877 135.864V135.403C363.877 135.065 363.948 134.754 364.09 134.47C364.235 134.186 364.445 133.957 364.721 133.784C364.997 133.611 365.33 133.524 365.722 133.524C366.126 133.524 366.464 133.611 366.737 133.784C367.009 133.955 367.215 134.182 367.355 134.466C367.497 134.75 367.568 135.062 367.568 135.403V135.864C367.568 136.202 367.497 136.513 367.355 136.797C367.213 137.081 367.004 137.31 366.728 137.483C366.455 137.656 366.12 137.743 365.722 137.743C365.325 137.743 364.988 137.656 364.713 137.483C364.437 137.31 364.228 137.081 364.086 136.797C363.947 136.513 363.877 136.202 363.877 135.864ZM364.99 135.403V135.864C364.99 136.088 365.044 136.294 365.151 136.482C365.259 136.669 365.45 136.763 365.722 136.763C365.998 136.763 366.187 136.67 366.289 136.486C366.394 136.298 366.447 136.091 366.447 135.864V135.403C366.447 135.176 366.397 134.969 366.298 134.781C366.198 134.591 366.007 134.496 365.722 134.496C365.455 134.496 365.267 134.591 365.156 134.781C365.045 134.969 364.99 135.176 364.99 135.403ZM359.441 130.869V130.409C359.441 130.068 359.514 129.756 359.659 129.472C359.803 129.187 360.014 128.96 360.289 128.79C360.565 128.616 360.899 128.53 361.291 128.53C361.691 128.53 362.028 128.616 362.301 128.79C362.576 128.96 362.784 129.187 362.923 129.472C363.062 129.756 363.132 130.068 363.132 130.409V130.869C363.132 131.21 363.061 131.523 362.919 131.807C362.779 132.088 362.572 132.314 362.296 132.484C362.021 132.655 361.686 132.74 361.291 132.74C360.89 132.74 360.552 132.655 360.276 132.484C360.004 132.314 359.796 132.087 359.654 131.803C359.512 131.518 359.441 131.207 359.441 130.869ZM360.562 130.409V130.869C360.562 131.097 360.615 131.304 360.72 131.491C360.828 131.676 361.018 131.768 361.291 131.768C361.563 131.768 361.751 131.676 361.853 131.491C361.958 131.304 362.011 131.097 362.011 130.869V130.409C362.011 130.182 361.961 129.974 361.862 129.787C361.762 129.597 361.572 129.501 361.291 129.501C361.021 129.501 360.832 129.597 360.724 129.787C360.616 129.977 360.562 130.185 360.562 130.409ZM359.927 137.5L365.927 128.773H366.992L360.992 137.5H359.927Z" fill="white"/>
</g>
</g>
<defs>
<filter id="filter0_ddd_4270_4177" x="20.666" y="2.5" width="42" height="42" filterUnits="userSpaceOnUse" color-interpolation-filters="sRGB">
<feFlood flood-opacity="0" result="BackgroundImageFix"/>
<feColorMatrix in="SourceAlpha" type="matrix" values="0 0 0 0 0 0 0 0 0 0 0 0 0 0 0 0 0 0 127 0" result="hardAlpha"/>
<feMorphology radius="1" operator="dilate" in="SourceAlpha" result="effect1_dropShadow_4270_4177"/>
<feOffset/>
<feComposite in2="hardAlpha" operator="out"/>
<feColorMatrix type="matrix" values="0 0 0 0 0.109804 0 0 0 0 0.117647 0 0 0 0 0.129412 0 0 0 0.08 0"/>
<feBlend mode="normal" in2="BackgroundImageFix" result="effect1_dropShadow_4270_4177"/>
<feColorMatrix in="SourceAlpha" type="matrix" values="0 0 0 0 0 0 0 0 0 0 0 0 0 0 0 0 0 0 127 0" result="hardAlpha"/>
<feMorphology radius="1" operator="dilate" in="SourceAlpha" result="effect2_dropShadow_4270_4177"/>
<feOffset dy="2"/>
<feGaussianBlur stdDeviation="2"/>
<feComposite in2="hardAlpha" operator="out"/>
<feColorMatrix type="matrix" values="0 0 0 0 0.0156863 0 0 0 0 0.0156863 0 0 0 0 0.0196078 0 0 0 0.04 0"/>
<feBlend mode="normal" in2="effect1_dropShadow_4270_4177" result="effect2_dropShadow_4270_4177"/>
<feColorMatrix in="SourceAlpha" type="matrix" values="0 0 0 0 0 0 0 0 0 0 0 0 0 0 0 0 0 0 127 0" result="hardAlpha"/>
<feOffset/>
<feGaussianBlur stdDeviation="0.5"/>
<feComposite in2="hardAlpha" operator="out"/>
<feColorMatrix type="matrix" values="0 0 0 0 0.0156863 0 0 0 0 0.0156863 0 0 0 0 0.0196078 0 0 0 0.12 0"/>
<feBlend mode="normal" in2="effect2_dropShadow_4270_4177" result="effect3_dropShadow_4270_4177"/>
<feBlend mode="normal" in="SourceGraphic" in2="effect3_dropShadow_4270_4177" result="shape"/>
</filter>
<filter id="filter1_ddddd_4270_4177" x="288.666" y="7.5" width="120" height="92" filterUnits="userSpaceOnUse" color-interpolation-filters="sRGB">
<feFlood flood-opacity="0" result="BackgroundImageFix"/>
<feColorMatrix in="SourceAlpha" type="matrix" values="0 0 0 0 0 0 0 0 0 0 0 0 0 0 0 0 0 0 127 0" result="hardAlpha"/>
<feOffset dy="32"/>
<feGaussianBlur stdDeviation="16"/>
<feComposite in2="hardAlpha" operator="out"/>
<feColorMatrix type="matrix" values="0 0 0 0 0.0666667 0 0 0 0 0.0941176 0 0 0 0 0.152941 0 0 0 0.05 0"/>
<feBlend mode="normal" in2="BackgroundImageFix" result="effect1_dropShadow_4270_4177"/>
<feColorMatrix in="SourceAlpha" type="matrix" values="0 0 0 0 0 0 0 0 0 0 0 0 0 0 0 0 0 0 127 0" result="hardAlpha"/>
<feOffset dy="16"/>
<feGaussianBlur stdDeviation="8"/>
<feComposite in2="hardAlpha" operator="out"/>
<feColorMatrix type="matrix" values="0 0 0 0 0.0666667 0 0 0 0 0.0941176 0 0 0 0 0.152941 0 0 0 0.05 0"/>
<feBlend mode="normal" in2="effect1_dropShadow_4270_4177" result="effect2_dropShadow_4270_4177"/>
<feColorMatrix in="SourceAlpha" type="matrix" values="0 0 0 0 0 0 0 0 0 0 0 0 0 0 0 0 0 0 127 0" result="hardAlpha"/>
<feOffset dy="8"/>
<feGaussianBlur stdDeviation="4"/>
<feComposite in2="hardAlpha" operator="out"/>
<feColorMatrix type="matrix" values="0 0 0 0 0.0666667 0 0 0 0 0.0941176 0 0 0 0 0.152941 0 0 0 0.05 0"/>
<feBlend mode="normal" in2="effect2_dropShadow_4270_4177" result="effect3_dropShadow_4270_4177"/>
<feColorMatrix in="SourceAlpha" type="matrix" values="0 0 0 0 0 0 0 0 0 0 0 0 0 0 0 0 0 0 127 0" result="hardAlpha"/>
<feOffset dy="4"/>
<feGaussianBlur stdDeviation="2"/>
<feComposite in2="hardAlpha" operator="out"/>
<feColorMatrix type="matrix" values="0 0 0 0 0.0666667 0 0 0 0 0.0941176 0 0 0 0 0.152941 0 0 0 0.05 0"/>
<feBlend mode="normal" in2="effect3_dropShadow_4270_4177" result="effect4_dropShadow_4270_4177"/>
<feColorMatrix in="SourceAlpha" type="matrix" values="0 0 0 0 0 0 0 0 0 0 0 0 0 0 0 0 0 0 127 0" result="hardAlpha"/>
<feMorphology radius="2" operator="erode" in="SourceAlpha" result="effect5_dropShadow_4270_4177"/>
<feOffset dy="2"/>
<feGaussianBlur stdDeviation="1"/>
<feComposite in2="hardAlpha" operator="out"/>
<feColorMatrix type="matrix" values="0 0 0 0 0.0666667 0 0 0 0 0.0941176 0 0 0 0 0.152941 0 0 0 0.05 0"/>
<feBlend mode="normal" in2="effect4_dropShadow_4270_4177" result="effect5_dropShadow_4270_4177"/>
<feBlend mode="normal" in="SourceGraphic" in2="effect5_dropShadow_4270_4177" result="shape"/>
</filter>
<filter id="filter2_ddd_4270_4177" x="20.666" y="58.5" width="42" height="42" filterUnits="userSpaceOnUse" color-interpolation-filters="sRGB">
<feFlood flood-opacity="0" result="BackgroundImageFix"/>
<feColorMatrix in="SourceAlpha" type="matrix" values="0 0 0 0 0 0 0 0 0 0 0 0 0 0 0 0 0 0 127 0" result="hardAlpha"/>
<feMorphology radius="1" operator="dilate" in="SourceAlpha" result="effect1_dropShadow_4270_4177"/>
<feOffset/>
<feComposite in2="hardAlpha" operator="out"/>
<feColorMatrix type="matrix" values="0 0 0 0 0.109804 0 0 0 0 0.117647 0 0 0 0 0.129412 0 0 0 0.08 0"/>
<feBlend mode="normal" in2="BackgroundImageFix" result="effect1_dropShadow_4270_4177"/>
<feColorMatrix in="SourceAlpha" type="matrix" values="0 0 0 0 0 0 0 0 0 0 0 0 0 0 0 0 0 0 127 0" result="hardAlpha"/>
<feMorphology radius="1" operator="dilate" in="SourceAlpha" result="effect2_dropShadow_4270_4177"/>
<feOffset dy="2"/>
<feGaussianBlur stdDeviation="2"/>
<feComposite in2="hardAlpha" operator="out"/>
<feColorMatrix type="matrix" values="0 0 0 0 0.0156863 0 0 0 0 0.0156863 0 0 0 0 0.0196078 0 0 0 0.04 0"/>
<feBlend mode="normal" in2="effect1_dropShadow_4270_4177" result="effect2_dropShadow_4270_4177"/>
<feColorMatrix in="SourceAlpha" type="matrix" values="0 0 0 0 0 0 0 0 0 0 0 0 0 0 0 0 0 0 127 0" result="hardAlpha"/>
<feOffset/>
<feGaussianBlur stdDeviation="0.5"/>
<feComposite in2="hardAlpha" operator="out"/>
<feColorMatrix type="matrix" values="0 0 0 0 0.0156863 0 0 0 0 0.0156863 0 0 0 0 0.0196078 0 0 0 0.12 0"/>
<feBlend mode="normal" in2="effect2_dropShadow_4270_4177" result="effect3_dropShadow_4270_4177"/>
<feBlend mode="normal" in="SourceGraphic" in2="effect3_dropShadow_4270_4177" result="shape"/>
</filter>
<filter id="filter3_ddddd_4270_4177" x="288.666" y="63.5" width="120" height="92" filterUnits="userSpaceOnUse" color-interpolation-filters="sRGB">
<feFlood flood-opacity="0" result="BackgroundImageFix"/>
<feColorMatrix in="SourceAlpha" type="matrix" values="0 0 0 0 0 0 0 0 0 0 0 0 0 0 0 0 0 0 127 0" result="hardAlpha"/>
<feOffset dy="32"/>
<feGaussianBlur stdDeviation="16"/>
<feComposite in2="hardAlpha" operator="out"/>
<feColorMatrix type="matrix" values="0 0 0 0 0.0666667 0 0 0 0 0.0941176 0 0 0 0 0.152941 0 0 0 0.05 0"/>
<feBlend mode="normal" in2="BackgroundImageFix" result="effect1_dropShadow_4270_4177"/>
<feColorMatrix in="SourceAlpha" type="matrix" values="0 0 0 0 0 0 0 0 0 0 0 0 0 0 0 0 0 0 127 0" result="hardAlpha"/>
<feOffset dy="16"/>
<feGaussianBlur stdDeviation="8"/>
<feComposite in2="hardAlpha" operator="out"/>
<feColorMatrix type="matrix" values="0 0 0 0 0.0666667 0 0 0 0 0.0941176 0 0 0 0 0.152941 0 0 0 0.05 0"/>
<feBlend mode="normal" in2="effect1_dropShadow_4270_4177" result="effect2_dropShadow_4270_4177"/>
<feColorMatrix in="SourceAlpha" type="matrix" values="0 0 0 0 0 0 0 0 0 0 0 0 0 0 0 0 0 0 127 0" result="hardAlpha"/>
<feOffset dy="8"/>
<feGaussianBlur stdDeviation="4"/>
<feComposite in2="hardAlpha" operator="out"/>
<feColorMatrix type="matrix" values="0 0 0 0 0.0666667 0 0 0 0 0.0941176 0 0 0 0 0.152941 0 0 0 0.05 0"/>
<feBlend mode="normal" in2="effect2_dropShadow_4270_4177" result="effect3_dropShadow_4270_4177"/>
<feColorMatrix in="SourceAlpha" type="matrix" values="0 0 0 0 0 0 0 0 0 0 0 0 0 0 0 0 0 0 127 0" result="hardAlpha"/>
<feOffset dy="4"/>
<feGaussianBlur stdDeviation="2"/>
<feComposite in2="hardAlpha" operator="out"/>
<feColorMatrix type="matrix" values="0 0 0 0 0.0666667 0 0 0 0 0.0941176 0 0 0 0 0.152941 0 0 0 0.05 0"/>
<feBlend mode="normal" in2="effect3_dropShadow_4270_4177" result="effect4_dropShadow_4270_4177"/>
<feColorMatrix in="SourceAlpha" type="matrix" values="0 0 0 0 0 0 0 0 0 0 0 0 0 0 0 0 0 0 127 0" result="hardAlpha"/>
<feMorphology radius="2" operator="erode" in="SourceAlpha" result="effect5_dropShadow_4270_4177"/>
<feOffset dy="2"/>
<feGaussianBlur stdDeviation="1"/>
<feComposite in2="hardAlpha" operator="out"/>
<feColorMatrix type="matrix" values="0 0 0 0 0.0666667 0 0 0 0 0.0941176 0 0 0 0 0.152941 0 0 0 0.05 0"/>
<feBlend mode="normal" in2="effect4_dropShadow_4270_4177" result="effect5_dropShadow_4270_4177"/>
<feBlend mode="normal" in="SourceGraphic" in2="effect5_dropShadow_4270_4177" result="shape"/>
</filter>
<filter id="filter4_ddd_4270_4177" x="20.666" y="114.5" width="42" height="42" filterUnits="userSpaceOnUse" color-interpolation-filters="sRGB">
<feFlood flood-opacity="0" result="BackgroundImageFix"/>
<feColorMatrix in="SourceAlpha" type="matrix" values="0 0 0 0 0 0 0 0 0 0 0 0 0 0 0 0 0 0 127 0" result="hardAlpha"/>
<feMorphology radius="1" operator="dilate" in="SourceAlpha" result="effect1_dropShadow_4270_4177"/>
<feOffset/>
<feComposite in2="hardAlpha" operator="out"/>
<feColorMatrix type="matrix" values="0 0 0 0 0.109804 0 0 0 0 0.117647 0 0 0 0 0.129412 0 0 0 0.08 0"/>
<feBlend mode="normal" in2="BackgroundImageFix" result="effect1_dropShadow_4270_4177"/>
<feColorMatrix in="SourceAlpha" type="matrix" values="0 0 0 0 0 0 0 0 0 0 0 0 0 0 0 0 0 0 127 0" result="hardAlpha"/>
<feMorphology radius="1" operator="dilate" in="SourceAlpha" result="effect2_dropShadow_4270_4177"/>
<feOffset dy="2"/>
<feGaussianBlur stdDeviation="2"/>
<feComposite in2="hardAlpha" operator="out"/>
<feColorMatrix type="matrix" values="0 0 0 0 0.0156863 0 0 0 0 0.0156863 0 0 0 0 0.0196078 0 0 0 0.04 0"/>
<feBlend mode="normal" in2="effect1_dropShadow_4270_4177" result="effect2_dropShadow_4270_4177"/>
<feColorMatrix in="SourceAlpha" type="matrix" values="0 0 0 0 0 0 0 0 0 0 0 0 0 0 0 0 0 0 127 0" result="hardAlpha"/>
<feOffset/>
<feGaussianBlur stdDeviation="0.5"/>
<feComposite in2="hardAlpha" operator="out"/>
<feColorMatrix type="matrix" values="0 0 0 0 0.0156863 0 0 0 0 0.0156863 0 0 0 0 0.0196078 0 0 0 0.12 0"/>
<feBlend mode="normal" in2="effect2_dropShadow_4270_4177" result="effect3_dropShadow_4270_4177"/>
<feBlend mode="normal" in="SourceGraphic" in2="effect3_dropShadow_4270_4177" result="shape"/>
</filter>
<filter id="filter5_ddddd_4270_4177" x="288.666" y="119.5" width="120" height="92" filterUnits="userSpaceOnUse" color-interpolation-filters="sRGB">
<feFlood flood-opacity="0" result="BackgroundImageFix"/>
<feColorMatrix in="SourceAlpha" type="matrix" values="0 0 0 0 0 0 0 0 0 0 0 0 0 0 0 0 0 0 127 0" result="hardAlpha"/>
<feOffset dy="32"/>
<feGaussianBlur stdDeviation="16"/>
<feComposite in2="hardAlpha" operator="out"/>
<feColorMatrix type="matrix" values="0 0 0 0 0.0666667 0 0 0 0 0.0941176 0 0 0 0 0.152941 0 0 0 0.05 0"/>
<feBlend mode="normal" in2="BackgroundImageFix" result="effect1_dropShadow_4270_4177"/>
<feColorMatrix in="SourceAlpha" type="matrix" values="0 0 0 0 0 0 0 0 0 0 0 0 0 0 0 0 0 0 127 0" result="hardAlpha"/>
<feOffset dy="16"/>
<feGaussianBlur stdDeviation="8"/>
<feComposite in2="hardAlpha" operator="out"/>
<feColorMatrix type="matrix" values="0 0 0 0 0.0666667 0 0 0 0 0.0941176 0 0 0 0 0.152941 0 0 0 0.05 0"/>
<feBlend mode="normal" in2="effect1_dropShadow_4270_4177" result="effect2_dropShadow_4270_4177"/>
<feColorMatrix in="SourceAlpha" type="matrix" values="0 0 0 0 0 0 0 0 0 0 0 0 0 0 0 0 0 0 127 0" result="hardAlpha"/>
<feOffset dy="8"/>
<feGaussianBlur stdDeviation="4"/>
<feComposite in2="hardAlpha" operator="out"/>
<feColorMatrix type="matrix" values="0 0 0 0 0.0666667 0 0 0 0 0.0941176 0 0 0 0 0.152941 0 0 0 0.05 0"/>
<feBlend mode="normal" in2="effect2_dropShadow_4270_4177" result="effect3_dropShadow_4270_4177"/>
<feColorMatrix in="SourceAlpha" type="matrix" values="0 0 0 0 0 0 0 0 0 0 0 0 0 0 0 0 0 0 127 0" result="hardAlpha"/>
<feOffset dy="4"/>
<feGaussianBlur stdDeviation="2"/>
<feComposite in2="hardAlpha" operator="out"/>
<feColorMatrix type="matrix" values="0 0 0 0 0.0666667 0 0 0 0 0.0941176 0 0 0 0 0.152941 0 0 0 0.05 0"/>
<feBlend mode="normal" in2="effect3_dropShadow_4270_4177" result="effect4_dropShadow_4270_4177"/>
<feColorMatrix in="SourceAlpha" type="matrix" values="0 0 0 0 0 0 0 0 0 0 0 0 0 0 0 0 0 0 127 0" result="hardAlpha"/>
<feMorphology radius="2" operator="erode" in="SourceAlpha" result="effect5_dropShadow_4270_4177"/>
<feOffset dy="2"/>
<feGaussianBlur stdDeviation="1"/>
<feComposite in2="hardAlpha" operator="out"/>
<feColorMatrix type="matrix" values="0 0 0 0 0.0666667 0 0 0 0 0.0941176 0 0 0 0 0.152941 0 0 0 0.05 0"/>
<feBlend mode="normal" in2="effect4_dropShadow_4270_4177" result="effect5_dropShadow_4270_4177"/>
<feBlend mode="normal" in="SourceGraphic" in2="effect5_dropShadow_4270_4177" result="shape"/>
</filter>
<linearGradient id="paint0_linear_4270_4177" x1="41.666" y1="5.5" x2="41.666" y2="37.5" gradientUnits="userSpaceOnUse">
<stop stop-color="#C3CBD2" stop-opacity="0"/>
<stop offset="1" stop-color="#C3CBD2"/>
</linearGradient>
<linearGradient id="paint1_linear_4270_4177" x1="348.666" y1="7.5" x2="348.666" y2="35.5" gradientUnits="userSpaceOnUse">
<stop stop-color="#034218" stop-opacity="0"/>
<stop offset="1" stop-color="#034218"/>
</linearGradient>
<linearGradient id="paint2_linear_4270_4177" x1="348.666" y1="7.5" x2="348.666" y2="35.5" gradientUnits="userSpaceOnUse">
<stop stop-color="white"/>
<stop offset="1" stop-color="white" stop-opacity="0"/>
</linearGradient>
<linearGradient id="paint3_linear_4270_4177" x1="41.666" y1="61.5" x2="41.666" y2="93.5" gradientUnits="userSpaceOnUse">
<stop stop-color="#C3CBD2" stop-opacity="0"/>
<stop offset="1" stop-color="#C3CBD2"/>
</linearGradient>
<linearGradient id="paint4_linear_4270_4177" x1="348.666" y1="63.5" x2="348.666" y2="91.5" gradientUnits="userSpaceOnUse">
<stop stop-color="#6F0000" stop-opacity="0"/>
<stop offset="1" stop-color="#610404"/>
</linearGradient>
<linearGradient id="paint5_linear_4270_4177" x1="348.666" y1="63.5" x2="348.666" y2="91.5" gradientUnits="userSpaceOnUse">
<stop stop-color="white"/>
<stop offset="1" stop-color="white" stop-opacity="0"/>
</linearGradient>
<linearGradient id="paint6_linear_4270_4177" x1="41.666" y1="117.5" x2="41.666" y2="149.5" gradientUnits="userSpaceOnUse">
<stop stop-color="#C3CBD2" stop-opacity="0"/>
<stop offset="1" stop-color="#C3CBD2"/>
</linearGradient>
<linearGradient id="paint7_linear_4270_4177" x1="348.666" y1="119.5" x2="348.666" y2="147.5" gradientUnits="userSpaceOnUse">
<stop stop-color="#034218" stop-opacity="0"/>
<stop offset="1" stop-color="#034218"/>
</linearGradient>
<linearGradient id="paint8_linear_4270_4177" x1="348.666" y1="119.5" x2="348.666" y2="147.5" gradientUnits="userSpaceOnUse">
<stop stop-color="white"/>
<stop offset="1" stop-color="white" stop-opacity="0"/>
</linearGradient>
<clipPath id="clip0_4270_4177">
<rect width="402" height="170" fill="white" transform="translate(0 0.5)"/>
</clipPath>
</defs>
</svg>
