<svg fill="none" height="19" viewBox="0 0 16 19" width="16" xmlns="http://www.w3.org/2000/svg"><g clip-rule="evenodd" fill="#006dda" fill-rule="evenodd"><path d="m7.99968 17.6668c3.68192 0 6.66662-2.9847 6.66662-6.6666 0-3.68194-2.9847-6.6667-6.66662-6.6667-3.6819 0-6.66667 2.98476-6.66667 6.6667 0 3.6819 2.98477 6.6666 6.66667 6.6666z" fill-opacity=".16"/><path d="m13.333 11.0002c0 2.9455-2.3878 5.3333-5.33332 5.3333s-5.33334-2.3878-5.33334-5.3333c0-2.94556 2.38782-5.33337 5.33334-5.33337s5.33332 2.38781 5.33332 5.33337zm1.3333 0c0 3.6819-2.9847 6.6666-6.66662 6.6666-3.6819 0-6.66667-2.9847-6.66667-6.6666 0-3.68194 2.98477-6.6667 6.66667-6.6667 3.68192 0 6.66662 2.98476 6.66662 6.6667zm-3.8619-1.1953c.2604-.26035.2604-.68246 0-.94281-.2603-.26035-.6824-.26035-.9428 0l-2.86192 2.86191-1.19527-1.1952c-.26035-.2604-.68246-.2604-.94281 0-.26035.2603-.26035.6824 0 .9428l1.66667 1.6666c.26035.2604.68246.2604.94281 0z"/></g></svg>