<svg width="1593" height="591" viewBox="0 0 1593 591" fill="none" xmlns="http://www.w3.org/2000/svg">
<g clip-path="url(#clip0_4097_2644)">
<mask id="path-1-inside-1_4097_2644" fill="white">
<path d="M0 0.664062H1593V590.664H0V0.664062Z"/>
</mask>
<path d="M0 0.664062H1593V590.664H0V0.664062Z" fill="url(#paint0_linear_4097_2644)"/>
<path d="M1144.67 39.3909C1385.07 39.3909 1405.92 295.354 1593.06 295.354V641.582H0.0585938V103.28C150.606 103.28 106.132 -60.7148 268.257 -60.7148C430.391 -60.7148 370.172 167.576 646.705 167.576C874.611 167.576 904.256 39.3909 1144.67 39.3909Z" fill="url(#paint1_radial_4097_2644)" fill-opacity="0.4"/>
<path d="M1593.08 296.464C1406 296.464 1384.89 40.8197 1144.55 40.8197C904.215 40.8197 874.826 169.423 646.99 169.423C370.531 169.423 430.731 -58.4141 268.653 -58.4141C106.574 -58.4141 150.567 104.143 0.0654297 104.143" stroke="url(#paint2_linear_4097_2644)" stroke-width="2"/>
<path d="M653.52 414.938C257.334 414.938 187.446 572.385 0.460938 572.385L0.460938 629.166H1594V403.824C1419.51 496.44 1346.84 355.664 1134.4 355.664C921.965 355.664 908.08 414.938 653.52 414.938Z" fill="url(#paint3_linear_4097_2644)"/>
<path d="M0.0820312 573.883C187.013 573.883 257.128 416.403 653.2 416.403C907.684 416.403 921.696 357.379 1134.08 357.379C1346.45 357.379 1420.42 497.612 1594.86 404.997" stroke="url(#paint4_linear_4097_2644)" stroke-width="2"/>
</g>
<path d="M1593 588.664H0V592.664H1593V588.664Z" fill="url(#paint5_linear_4097_2644)" mask="url(#path-1-inside-1_4097_2644)"/>
<defs>
<linearGradient id="paint0_linear_4097_2644" x1="496.862" y1="-53.446" x2="603.763" y2="673.226" gradientUnits="userSpaceOnUse">
<stop stop-color="#D2E7F9"/>
<stop offset="0.465854" stop-color="#2DB6F5"/>
<stop offset="1" stop-color="#006DDA"/>
</linearGradient>
<radialGradient id="paint1_radial_4097_2644" cx="0" cy="0" r="1" gradientUnits="userSpaceOnUse" gradientTransform="translate(825.324 -89.9678) rotate(89.7924) scale(610.534 695.123)">
<stop stop-color="white" stop-opacity="0.1"/>
<stop offset="1" stop-color="white" stop-opacity="0.2"/>
</radialGradient>
<linearGradient id="paint2_linear_4097_2644" x1="1593.06" y1="115.297" x2="0.0583236" y2="115.297" gradientUnits="userSpaceOnUse">
<stop stop-color="#D1E7FA" stop-opacity="0.3"/>
<stop offset="0.353981" stop-color="#D1E7FA" stop-opacity="0.02"/>
<stop offset="0.585697" stop-color="#D1E7FA" stop-opacity="0.02"/>
<stop offset="1" stop-color="white" stop-opacity="0.3"/>
</linearGradient>
<linearGradient id="paint3_linear_4097_2644" x1="808.725" y1="412.399" x2="808.725" y2="672.066" gradientUnits="userSpaceOnUse">
<stop stop-color="#2DB6F5" stop-opacity="0.3"/>
<stop offset="1" stop-color="#2DB6F5" stop-opacity="0"/>
</linearGradient>
<linearGradient id="paint4_linear_4097_2644" x1="0.459117" y1="464.024" x2="1594" y2="464.024" gradientUnits="userSpaceOnUse">
<stop stop-color="#7AD5FF" stop-opacity="0.7"/>
<stop offset="0.27" stop-color="#7AD5FF" stop-opacity="0.07"/>
<stop offset="0.743481" stop-color="#7AD5FF" stop-opacity="0.07"/>
<stop offset="1" stop-color="#7AD5FF" stop-opacity="0.2"/>
</linearGradient>
<linearGradient id="paint5_linear_4097_2644" x1="1578.23" y1="590.664" x2="233.608" y2="30.2039" gradientUnits="userSpaceOnUse">
<stop stop-color="#1466A4" stop-opacity="0"/>
<stop offset="0.50946" stop-color="#1466A4"/>
<stop offset="1" stop-color="#1466A4" stop-opacity="0"/>
</linearGradient>
<clipPath id="clip0_4097_2644">
<path d="M0 0.664062H1593V590.664H0V0.664062Z" fill="white"/>
</clipPath>
</defs>
</svg>
