<svg width="72" height="76" viewBox="0 0 72 76" fill="none" xmlns="http://www.w3.org/2000/svg">
<g filter="url(#filter0_f_4100_10897)">
<path d="M54.1719 44.0869C54.1719 51.7931 45.9996 58.041 35.9199 58.041C25.8403 58.041 17.668 51.7931 17.668 44.0869C17.668 36.3808 25.8403 30.1328 35.9199 30.1328C45.9996 30.1328 54.1719 36.3808 54.1719 44.0869Z" fill="url(#paint0_linear_4100_10897)" fill-opacity="0.3"/>
</g>
<path d="M61.4528 27.0986C61.4528 41.1986 50.0208 52.6305 35.9208 52.6305C21.8208 52.6305 10.3889 41.1986 10.3889 27.0986C10.3889 12.9986 21.8208 1.5666 35.9208 1.5666C50.0208 1.5666 61.4528 12.9986 61.4528 27.0986Z" fill="url(#paint1_linear_4100_10897)" stroke="url(#paint2_linear_4100_10897)" stroke-width="1.16054"/>
<path d="M60.2127 26.9973C60.2127 40.4855 49.312 51.4183 35.8711 51.4183C22.4302 51.4183 11.5295 40.4855 11.5295 26.9973C11.5295 13.5091 22.4302 2.57637 35.8711 2.57637C49.312 2.57637 60.2127 13.5091 60.2127 26.9973Z" stroke="url(#paint3_linear_4100_10897)" stroke-opacity="0.39" stroke-width="1.16054"/>
<path opacity="0.05" d="M17.7966 26.4022C28.4439 21.578 40.949 16.3438 42.8748 15.5865C47.1207 13.9167 48.972 15.6231 48.6822 18.3453C48.3257 21.6811 46.6363 31.3884 45.597 38.3434C44.9886 42.413 42.7847 43.6598 40.2975 42.0813C38.4109 40.8841 31.9246 36.6369 30.2182 35.1851C29.0549 34.1954 28.2441 33.0857 29.0693 31.955C29.3108 31.6247 29.9284 30.9588 30.2717 30.6272C31.9938 28.9586 31.7614 28.5996 29.679 30.0893C29.4309 30.2668 27.9921 31.31 27.4007 31.7043C25.9515 32.6705 24.6184 32.7227 22.3584 31.955C20.5097 31.327 18.734 30.8426 17.6138 30.3582C16.0667 29.6885 15.4739 27.4546 17.7966 26.4022Z" fill="black"/>
<path opacity="0.07" d="M18.727 26.5639C28.6131 22.1444 40.771 17.0799 42.5492 16.3631C46.8108 14.6423 48.3788 15.6633 47.9205 18.9887C47.4949 22.0673 45.9843 31.5931 44.9255 37.9788C44.3014 41.7377 42.4787 42.5654 40.1051 41.03C38.618 40.0717 32.6331 36.1288 31.1813 34.9811C30.0585 34.0946 28.8952 33.071 30.2543 31.5892C30.7086 31.0943 33.218 28.6724 35.0942 26.8707C36.1818 25.8249 35.794 25.3092 34.4819 26.2074C32.0756 27.8564 28.1392 30.4663 27.4368 30.9403C26.0985 31.8412 24.8412 32.0579 22.653 31.3698C20.9283 30.8267 19.2623 30.3005 18.3941 29.9624C16.454 29.2103 16.4279 27.5914 18.727 26.5639Z" fill="black"/>
<path d="M19.6663 26.73C28.7925 22.7153 40.6018 17.8205 42.2325 17.1429C46.5084 15.3699 47.8205 15.7094 47.1664 19.6367C46.6964 22.4594 45.3411 31.8036 44.2601 37.6201C43.619 41.0696 42.1802 41.4782 39.9189 39.9859C38.8314 39.2678 33.3413 35.6369 32.1492 34.7844C31.0617 34.0075 29.5615 33.0727 31.4429 31.2318C32.1127 30.5764 36.5008 26.3854 39.9202 23.1239C40.3681 22.6957 39.8053 21.992 39.2883 22.3354C34.6795 25.3918 28.2898 29.6337 27.4764 30.186C26.2479 31.0203 25.0676 31.4028 22.9499 30.7944C21.3492 30.3348 19.7864 29.7865 19.178 29.5776C16.8344 28.7733 17.3906 27.7314 19.6663 26.73Z" fill="url(#paint4_linear_4100_10897)"/>
<defs>
<filter id="filter0_f_4100_10897" x="0.667969" y="13.1328" width="70.5039" height="61.9082" filterUnits="userSpaceOnUse" color-interpolation-filters="sRGB">
<feFlood flood-opacity="0" result="BackgroundImageFix"/>
<feBlend mode="normal" in="SourceGraphic" in2="BackgroundImageFix" result="shape"/>
<feGaussianBlur stdDeviation="8.5" result="effect1_foregroundBlur_4100_10897"/>
</filter>
<linearGradient id="paint0_linear_4100_10897" x1="23.0167" y1="31.6193" x2="38.6285" y2="68.0839" gradientUnits="userSpaceOnUse">
<stop stop-color="#0086C4"/>
<stop offset="1" stop-color="#084F96"/>
</linearGradient>
<linearGradient id="paint1_linear_4100_10897" x1="17.4607" y1="3.76794" x2="57.7223" y2="55.0674" gradientUnits="userSpaceOnUse">
<stop stop-color="#2DB6F5"/>
<stop offset="1" stop-color="#006DDA"/>
</linearGradient>
<linearGradient id="paint2_linear_4100_10897" x1="28.7552" y1="7.28626" x2="35.9208" y2="53.2108" gradientUnits="userSpaceOnUse">
<stop stop-color="#0971C1" stop-opacity="0"/>
<stop offset="1" stop-color="#0971C1"/>
</linearGradient>
<linearGradient id="paint3_linear_4100_10897" x1="29.0322" y1="8.02798" x2="33.0337" y2="36.5255" gradientUnits="userSpaceOnUse">
<stop stop-color="white"/>
<stop offset="1" stop-color="white" stop-opacity="0"/>
</linearGradient>
<linearGradient id="paint4_linear_4100_10897" x1="42.5945" y1="19.8493" x2="41.8284" y2="40.8055" gradientUnits="userSpaceOnUse">
<stop stop-color="white"/>
<stop offset="1" stop-color="white" stop-opacity="0.9"/>
</linearGradient>
</defs>
</svg>
