<svg width="55" height="54" viewBox="0 0 55 54" fill="none" xmlns="http://www.w3.org/2000/svg">
<g filter="url(#filter0_dd_4097_3748)">
<rect x="13.5977" y="9" width="28" height="28" rx="14" fill="white"/>
<rect x="13.5977" y="9" width="28" height="28" rx="14" fill="url(#paint0_linear_4097_3748)" fill-opacity="0.3"/>
<rect x="14.5977" y="10" width="26" height="26" rx="13" stroke="white" stroke-width="2"/>
<path fill-rule="evenodd" clip-rule="evenodd" d="M24.8126 16.3322C24.8314 16.3323 24.8495 16.3324 24.867 16.3324H30.3337C30.3511 16.3324 30.3693 16.3323 30.388 16.3322C30.5736 16.3314 30.8177 16.3302 31.0336 16.4088C31.3854 16.5368 31.6626 16.814 31.7906 17.1658C31.8337 17.2843 31.8528 17.4113 31.8612 17.5324L32.7173 17.5324C32.8423 17.5324 32.9672 17.5324 33.074 17.5397C33.1916 17.5477 33.3352 17.5667 33.4851 17.6288C33.7954 17.7574 34.042 18.004 34.1706 18.3143C34.2327 18.4642 34.2517 18.6078 34.2597 18.7254C34.267 18.8322 34.267 18.9571 34.267 19.0821L34.267 19.3991C34.267 19.4286 34.267 19.4577 34.267 19.4864C34.2673 19.9585 34.2676 20.3216 34.183 20.6375C33.9549 21.4887 33.29 22.1536 32.4388 22.3817C32.2155 22.4415 31.9687 22.4589 31.6764 22.4639C31.2012 23.9969 29.885 25.1601 28.267 25.414V25.9324H28.467C30.0134 25.9324 31.267 27.186 31.267 28.7324C31.267 29.2479 30.8491 29.6657 30.3337 29.6657H24.867C24.3515 29.6657 23.9337 29.2479 23.9337 28.7324C23.9337 27.186 25.1873 25.9324 26.7337 25.9324H26.9337V25.414C25.3157 25.1601 23.9994 23.9969 23.5243 22.4639C23.232 22.4589 22.9851 22.4415 22.7619 22.3817C21.9107 22.1536 21.2458 21.4887 21.0177 20.6375C20.9331 20.3216 20.9333 19.9585 20.9336 19.4864C20.9336 19.4577 20.9337 19.4286 20.9337 19.3991V19.0991C20.9337 19.0934 20.9337 19.0877 20.9337 19.0821C20.9337 18.9571 20.9336 18.8322 20.9409 18.7254C20.9489 18.6078 20.968 18.4642 21.0301 18.3143C21.1586 18.004 21.4052 17.7574 21.7156 17.6288C21.8655 17.5667 22.009 17.5477 22.1267 17.5397C22.2335 17.5324 22.3583 17.5324 22.4834 17.5324C22.489 17.5324 22.4947 17.5324 22.5003 17.5324H23.3395C23.3478 17.4113 23.3669 17.2843 23.4101 17.1658C23.5381 16.814 23.8153 16.5368 24.1671 16.4088C24.383 16.3302 24.6271 16.3314 24.8126 16.3322ZM23.3337 18.8657H22.5003C22.3919 18.8657 22.3209 18.8659 22.2688 18.8675C22.2672 18.9196 22.267 18.9906 22.267 19.0991V19.3991C22.267 20 22.2727 20.1696 22.3056 20.2924C22.4104 20.6835 22.7159 20.989 23.107 21.0938C23.1618 21.1085 23.226 21.1177 23.3337 21.1235V18.8657ZM31.867 18.8657V21.1235C31.9747 21.1177 32.0389 21.1085 32.0937 21.0938C32.4848 20.989 32.7903 20.6835 32.8951 20.2924C32.9279 20.1696 32.9337 20 32.9337 19.3991V19.0991C32.9337 18.9906 32.9335 18.9196 32.9319 18.8675C32.8798 18.8659 32.8088 18.8657 32.7003 18.8657H31.867Z" fill="url(#paint1_linear_4097_3748)"/>
</g>
<defs>
<filter id="filter0_dd_4097_3748" x="0.597656" y="0" width="54" height="54" filterUnits="userSpaceOnUse" color-interpolation-filters="sRGB">
<feFlood flood-opacity="0" result="BackgroundImageFix"/>
<feColorMatrix in="SourceAlpha" type="matrix" values="0 0 0 0 0 0 0 0 0 0 0 0 0 0 0 0 0 0 127 0" result="hardAlpha"/>
<feMorphology radius="1" operator="dilate" in="SourceAlpha" result="effect1_dropShadow_4097_3748"/>
<feOffset dy="4"/>
<feGaussianBlur stdDeviation="6"/>
<feColorMatrix type="matrix" values="0 0 0 0 0.0156863 0 0 0 0 0.0156863 0 0 0 0 0.0196078 0 0 0 0.08 0"/>
<feBlend mode="normal" in2="BackgroundImageFix" result="effect1_dropShadow_4097_3748"/>
<feColorMatrix in="SourceAlpha" type="matrix" values="0 0 0 0 0 0 0 0 0 0 0 0 0 0 0 0 0 0 127 0" result="hardAlpha"/>
<feOffset/>
<feGaussianBlur stdDeviation="0.5"/>
<feColorMatrix type="matrix" values="0 0 0 0 0.0156863 0 0 0 0 0.0156863 0 0 0 0 0.0196078 0 0 0 0.12 0"/>
<feBlend mode="normal" in2="effect1_dropShadow_4097_3748" result="effect2_dropShadow_4097_3748"/>
<feBlend mode="normal" in="SourceGraphic" in2="effect2_dropShadow_4097_3748" result="shape"/>
</filter>
<linearGradient id="paint0_linear_4097_3748" x1="27.5977" y1="9" x2="36.4583" y2="34.8063" gradientUnits="userSpaceOnUse">
<stop stop-color="white" stop-opacity="0"/>
<stop offset="1" stop-color="#7BB2E2"/>
</linearGradient>
<linearGradient id="paint1_linear_4097_3748" x1="27.6003" y1="16.332" x2="27.6003" y2="29.6657" gradientUnits="userSpaceOnUse">
<stop stop-color="#F0C269"/>
<stop offset="1" stop-color="#EAAC00"/>
</linearGradient>
</defs>
</svg>
