<svg width="116" height="92" viewBox="0 0 116 92" fill="none" xmlns="http://www.w3.org/2000/svg">
<g id="verifications-telemetrio">
<g id="Shadow" filter="url(#filter0_f_3256_6116)">
<path d="M85 52C85 56.9703 72.9108 61 58 61C43.0893 61 31 56.9703 31 52C31 47.0298 43.0893 43 58 43C72.9108 43 85 47.0298 85 52Z" fill="url(#paint0_linear_3256_6116)" fill-opacity="0.7"/>
</g>
<g id="shape-vector">
<path fill-rule="evenodd" clip-rule="evenodd" d="M60.0695 6.52861C56.336 4.31847 51.5645 5.02713 48.6344 8.22694L47.9219 9.00509C46.7193 10.3184 45.1603 11.2532 43.4353 11.6953L42.4132 11.9573C38.2104 13.0345 35.3376 16.9096 35.5283 21.244L35.5747 22.2981C35.653 24.0771 35.2116 25.8405 34.3045 27.3729L33.767 28.2808C31.5569 32.0144 32.2656 36.7859 35.4654 39.7159L36.2435 40.4285C37.5569 41.6311 38.4917 43.19 38.9338 44.915L39.1957 45.9371C40.2729 50.1399 44.148 53.0128 48.4825 52.822L49.5365 52.7756C51.3156 52.6973 53.0789 53.1387 54.6113 54.0458L55.5193 54.5833C59.2528 56.7934 64.0243 56.0848 66.9544 52.885L67.6669 52.1068C68.8695 50.7935 70.4285 49.8587 72.1535 49.4166L73.1755 49.1546C77.3784 48.0774 80.2512 44.2023 80.0604 39.8679L80.0141 38.8138C79.9358 37.0348 80.3771 35.2714 81.2843 33.739L81.8217 32.8311C84.0319 29.0975 83.3232 24.326 80.1234 21.396L79.3453 20.6834C78.0319 19.4808 77.0971 17.9219 76.655 16.1969L76.393 15.1748C75.3158 10.972 71.4408 8.09913 67.1063 8.28989L66.0522 8.33628C64.2732 8.41457 62.5098 7.97321 60.9774 7.06608L60.0695 6.52861Z" fill="url(#paint1_linear_3256_6116)"/>
<path d="M35.1504 27.8736L34.3045 27.3729L35.1504 27.8736C36.1548 26.177 36.6434 24.2246 36.5568 22.2549L36.5104 21.2008C36.3401 17.3309 38.905 13.8713 42.6573 12.9095L43.6794 12.6476C45.5893 12.158 47.3153 11.123 48.6468 9.66894L49.3594 8.89079C51.9754 6.03396 56.2354 5.40126 59.5688 7.3745L60.4767 7.91197C62.1734 8.91633 64.1257 9.405 66.0955 9.31832L67.1495 9.27193C71.0194 9.10162 74.4791 11.6665 75.4408 15.4189L75.7028 16.4409C76.1923 18.3508 77.2273 20.0769 78.6814 21.4084L79.4595 22.121C82.3164 24.7369 82.9491 28.997 80.9758 32.3303L80.4384 33.2383C79.434 34.9349 78.9453 36.8873 79.032 38.857L79.0784 39.9111C79.2487 43.781 76.6838 47.2407 72.9315 48.2024L71.9094 48.4644C69.9995 48.9539 68.2735 49.9889 66.9419 51.443L66.2294 52.2211C63.6134 55.0779 59.3534 55.7107 56.02 53.7374L55.1121 53.1999C53.4154 52.1956 51.4631 51.7069 49.4933 51.7936L48.4393 51.84C44.5694 52.0103 41.1097 49.4454 40.148 45.693L39.886 44.671C39.3965 42.7611 38.3615 41.035 36.9074 39.7035L36.1292 38.991C33.2724 36.375 32.6397 32.1149 34.6129 28.7816L35.1504 27.8736Z" stroke="url(#paint2_linear_3256_6116)" stroke-opacity="0.5" stroke-width="1.96598" stroke-linecap="square"/>
</g>
<path id="shape-vector_2" d="M77.0515 22.34L77.8241 21.4964L77.0515 22.3401L77.771 22.9988C80.3304 25.3425 80.8972 29.159 79.1294 32.1453L78.6325 32.9847L79.6168 33.5675L78.6325 32.9847C77.6806 34.5927 77.2175 36.4431 77.2996 38.3098L77.3425 39.2844C77.4951 42.7514 75.1972 45.8509 71.8356 46.7125L70.8906 46.9547C69.0805 47.4186 67.4447 48.3995 66.1827 49.7776L65.5239 50.4971C63.1803 53.0565 59.3638 53.6233 56.3775 51.8555L55.538 51.3586C53.93 50.4067 52.0797 49.9436 50.2129 50.0257L49.2383 50.0686C45.7714 50.2212 42.6719 47.9233 41.8103 44.5617L41.5681 43.6167C41.1041 41.8066 40.1232 40.1707 38.7451 38.9088L38.0257 38.25L37.2669 39.0787L38.0257 38.25C35.4663 35.9064 34.8994 32.0899 36.6672 29.1036L37.1642 28.2641C38.1161 26.6561 38.5792 24.8058 38.497 22.939L38.4541 21.9644C38.3016 18.4975 40.5994 15.398 43.9611 14.5364L44.9061 14.2942C46.7162 13.8302 48.352 12.8493 49.614 11.4712L50.2728 10.7518C52.6164 8.19237 56.4329 7.62554 59.4192 9.39333L60.2587 9.89027C61.8666 10.8421 63.717 11.3053 65.5838 11.2231L66.5583 11.1802C70.0253 11.0277 73.1248 13.3255 73.9864 16.6872L74.2286 17.6322C74.6925 19.4423 75.6734 21.0781 77.0515 22.34Z" stroke="url(#paint3_linear_3256_6116)" stroke-opacity="0.9" stroke-width="2.28779" stroke-linecap="square"/>
<g id="Group 35566">
<g id="vector-shape">
<path fill-rule="evenodd" clip-rule="evenodd" d="M67.38 23.2071C68.1172 23.775 68.2768 24.8496 67.7364 25.6072L57.5852 39.8638C57.0448 40.6214 56.0091 40.7752 55.2719 40.2074L47.7206 34.3908C46.9833 33.8229 46.8238 32.7484 47.3641 31.9907C47.9045 31.2331 48.9402 31.0793 49.6775 31.6472L55.8938 36.4355L65.0666 23.5507C65.607 22.7931 66.6427 22.6393 67.38 23.2071Z" fill="url(#paint4_linear_3256_6116)"/>
<path d="M58.8356 40.7556L58.8363 40.7546L68.9869 26.4991C70.007 25.0687 69.7091 23.0624 68.3172 21.9903C66.8904 20.8913 64.862 21.1926 63.8162 22.6588L63.8154 22.6599L55.5676 34.2454L50.6147 30.4304C49.1879 29.3313 47.1595 29.6326 46.1137 31.0989C45.0935 32.5292 45.3915 34.5355 46.7833 35.6076L54.3346 41.4241C55.7614 42.5232 57.7898 42.2219 58.8356 40.7556Z" stroke="black" stroke-opacity="0.07" stroke-width="3.07185" stroke-linecap="square" stroke-linejoin="round"/>
</g>
<path id="vector-shape (Stroke)" fill-rule="evenodd" clip-rule="evenodd" d="M58.3998 40.4467C57.5295 41.6669 55.8457 41.9169 54.6584 41.0023L47.1071 35.1859C45.9426 34.2888 45.6926 32.6061 46.5462 31.4093L47.3625 31.9915C46.8221 32.7492 46.9817 33.8237 47.7189 34.3916L55.2702 40.208C56.0074 40.7759 57.0431 40.6221 57.5835 39.8645L67.7348 25.608C68.2751 24.8504 68.1156 23.7759 67.3783 23.208C66.6411 22.6401 65.6054 22.794 65.065 23.5516L55.8922 36.4362L49.6758 31.648C48.9386 31.0801 47.9029 31.2339 47.3625 31.9915L46.5462 31.4093C47.4165 30.1891 49.1003 29.9391 50.2876 30.8537L55.6792 35.0066L64.2482 22.9701C65.1185 21.7499 66.8028 21.4991 67.9901 22.4137C69.1545 23.3106 69.4045 24.9929 68.5515 26.1896M68.5515 26.1896L58.3998 40.4467L68.5515 26.1896Z" fill="url(#paint5_linear_3256_6116)"/>
</g>
</g>
<defs>
<filter id="filter0_f_3256_6116" x="0.419918" y="12.4199" width="115.16" height="79.1602" filterUnits="userSpaceOnUse" color-interpolation-filters="sRGB">
<feFlood flood-opacity="0" result="BackgroundImageFix"/>
<feBlend mode="normal" in="SourceGraphic" in2="BackgroundImageFix" result="shape"/>
<feGaussianBlur stdDeviation="15.29" result="effect1_foregroundBlur_3256_6116"/>
</filter>
<linearGradient id="paint0_linear_3256_6116" x1="38.9123" y1="43.9587" x2="43.9323" y2="70.8513" gradientUnits="userSpaceOnUse">
<stop stop-color="#086B5B"/>
<stop offset="1" stop-color="#005548" stop-opacity="0.5"/>
</linearGradient>
<linearGradient id="paint1_linear_3256_6116" x1="44.4355" y1="12.2674" x2="69.9806" y2="54.5933" gradientUnits="userSpaceOnUse">
<stop stop-color="#00D694"/>
<stop offset="1" stop-color="#017564"/>
</linearGradient>
<linearGradient id="paint2_linear_3256_6116" x1="53.2514" y1="7.09267" x2="61.5381" y2="55.7629" gradientUnits="userSpaceOnUse">
<stop stop-color="#016252" stop-opacity="0.1"/>
<stop offset="1" stop-color="#015C4E"/>
</linearGradient>
<linearGradient id="paint3_linear_3256_6116" x1="54.0549" y1="7.37511" x2="58.3264" y2="36.1358" gradientUnits="userSpaceOnUse">
<stop stop-color="white"/>
<stop offset="1" stop-color="white" stop-opacity="0"/>
</linearGradient>
<linearGradient id="paint4_linear_3256_6116" x1="56.876" y1="24.2592" x2="59.2327" y2="40.1271" gradientUnits="userSpaceOnUse">
<stop stop-color="white"/>
<stop offset="1" stop-color="white" stop-opacity="0.9"/>
</linearGradient>
<linearGradient id="paint5_linear_3256_6116" x1="56.7271" y1="23.2686" x2="59.3784" y2="41.1195" gradientUnits="userSpaceOnUse">
<stop stop-color="white"/>
<stop offset="1" stop-color="white" stop-opacity="0.9"/>
</linearGradient>
</defs>
</svg>
