<svg width="32" height="32" viewBox="0 0 32 32" fill="none" xmlns="http://www.w3.org/2000/svg">
<rect width="32" height="32" rx="10" fill="white"/>
<rect width="32" height="32" rx="10" fill="url(#paint0_radial_1434_9)"/>
<rect x="3" y="3" width="26" height="26" rx="8" fill="url(#paint1_radial_1434_9)"/>
<g filter="url(#filter0_d_1434_9)">
<path fill-rule="evenodd" clip-rule="evenodd" d="M10.6667 11C9.9196 11 8.00001 11 8.00001 11C8.00001 11 8 13.0796 8 13.8571V18.1429C8 19.7208 9.19391 21 10.6667 21H21.3333C22.8061 21 24 19.7208 24 18.1429V13.8571C24 12.2792 22.8061 11 21.3333 11H10.6667ZM10.9193 18.1429H11.9268L12.182 17.2703H13.5215L13.7772 18.1429H14.7848L13.4761 13.987H12.228L10.9193 18.1429ZM13.2979 16.5073L12.8662 15.0341H12.8359L12.4051 16.5073H13.2979ZM15.4974 18.0089C15.6729 18.128 15.868 18.1875 16.0826 18.1875C16.2291 18.1875 16.356 18.1618 16.4633 18.1104C16.5719 18.059 16.6622 17.9913 16.7341 17.9075C16.8061 17.8236 16.8617 17.7336 16.9008 17.6376H16.9292V18.1429H17.8459V13.987H16.9197V15.5597H16.9008C16.8642 15.465 16.8105 15.3736 16.7398 15.2857C16.6691 15.1978 16.5795 15.1261 16.4709 15.0706C16.3623 15.0138 16.2316 14.9854 16.0788 14.9854C15.8756 14.9854 15.6855 15.0422 15.5088 15.1558C15.3333 15.2695 15.1912 15.4447 15.0826 15.6814C14.974 15.9182 14.9197 16.2198 14.9197 16.5864C14.9197 16.9395 14.9721 17.2351 15.0769 17.4732C15.1817 17.7113 15.3219 17.8899 15.4974 18.0089ZM16.6925 17.3129C16.6129 17.3805 16.517 17.4144 16.4046 17.4144C16.2897 17.4144 16.1925 17.3805 16.1129 17.3129C16.0346 17.2439 15.9747 17.1472 15.933 17.0227C15.8913 16.8983 15.8705 16.7522 15.8705 16.5844C15.8705 16.4167 15.8907 16.2712 15.9311 16.1481C15.9728 16.025 16.0334 15.9297 16.1129 15.862C16.1925 15.7944 16.2897 15.7606 16.4046 15.7606C16.517 15.7606 16.6129 15.7937 16.6925 15.86C16.7733 15.9263 16.8345 16.021 16.8762 16.1441C16.9191 16.2672 16.9406 16.414 16.9406 16.5844C16.9406 16.7522 16.9191 16.8983 16.8762 17.0227C16.8333 17.1472 16.772 17.2439 16.6925 17.3129ZM20.121 16.002L20.9714 15.9777C20.9474 15.6692 20.8217 15.4271 20.5945 15.2512C20.3672 15.074 20.0566 14.9854 19.6626 14.9854C19.4 14.9854 19.1721 15.0246 18.9789 15.1031C18.7857 15.1815 18.6368 15.2952 18.532 15.444C18.4272 15.5915 18.3754 15.7693 18.3767 15.9777C18.3754 16.2158 18.4461 16.4119 18.5888 16.5662C18.7315 16.719 18.9486 16.8239 19.2403 16.8807L19.7479 16.9842C19.8691 17.0085 19.9581 17.0423 20.0149 17.0856C20.0717 17.1276 20.1008 17.1837 20.102 17.2541C20.1008 17.3325 20.0629 17.3954 19.9884 17.4428C19.9139 17.4901 19.8173 17.5138 19.6986 17.5138C19.5673 17.5138 19.4594 17.484 19.3748 17.4245C19.2902 17.365 19.2378 17.2784 19.2176 17.1648L18.3028 17.1891C18.3369 17.4976 18.4732 17.7438 18.7119 17.9278C18.9518 18.1104 19.2794 18.2017 19.6948 18.2017C19.9549 18.2017 20.186 18.1584 20.388 18.0718C20.59 17.9839 20.7491 17.8608 20.8653 17.7025C20.9827 17.5442 21.0421 17.3582 21.0433 17.1445C21.0421 16.9172 20.9701 16.7346 20.8274 16.5966C20.686 16.4586 20.4701 16.3598 20.1797 16.3003L19.6191 16.1867C19.4966 16.1596 19.4114 16.1238 19.3634 16.0791C19.3167 16.0345 19.294 15.9817 19.2952 15.9209C19.294 15.8424 19.3306 15.7802 19.4051 15.7342C19.4808 15.6882 19.5724 15.6652 19.6797 15.6652C19.7618 15.6652 19.8337 15.6801 19.8956 15.7098C19.9587 15.7382 20.0099 15.7781 20.049 15.8295C20.0881 15.8796 20.1121 15.9371 20.121 16.002Z" fill="white"/>
</g>
<defs>
<filter id="filter0_d_1434_9" x="5" y="10" width="22" height="16" filterUnits="userSpaceOnUse" color-interpolation-filters="sRGB">
<feFlood flood-opacity="0" result="BackgroundImageFix"/>
<feColorMatrix in="SourceAlpha" type="matrix" values="0 0 0 0 0 0 0 0 0 0 0 0 0 0 0 0 0 0 127 0" result="hardAlpha"/>
<feOffset dy="2"/>
<feGaussianBlur stdDeviation="1.5"/>
<feComposite in2="hardAlpha" operator="out"/>
<feColorMatrix type="matrix" values="0 0 0 0 0.0745098 0 0 0 0 0.0745098 0 0 0 0 0.0745098 0 0 0 0.24 0"/>
<feBlend mode="hard-light" in2="BackgroundImageFix" result="effect1_dropShadow_1434_9"/>
<feBlend mode="normal" in="SourceGraphic" in2="effect1_dropShadow_1434_9" result="shape"/>
</filter>
<radialGradient id="paint0_radial_1434_9" cx="0" cy="0" r="1" gradientUnits="userSpaceOnUse" gradientTransform="rotate(45) scale(45.2548)">
<stop stop-color="#2DB6F5" stop-opacity="0"/>
<stop offset="1" stop-color="#2DB6F5" stop-opacity="0.72"/>
</radialGradient>
<radialGradient id="paint1_radial_1434_9" cx="0" cy="0" r="1" gradientUnits="userSpaceOnUse" gradientTransform="translate(29 29) rotate(-135) scale(36.7696)">
<stop stop-color="#2DB6F5"/>
<stop offset="1" stop-color="#2DB6F5" stop-opacity="0.72"/>
</radialGradient>
</defs>
</svg>
