<svg width="32" height="32" viewBox="0 0 32 32" fill="none" xmlns="http://www.w3.org/2000/svg">
<rect width="32" height="32" rx="10" fill="white"/>
<rect width="32" height="32" rx="10" fill="url(#paint0_radial_1184_18)"/>
<rect x="3" y="3" width="26" height="26" rx="8" fill="url(#paint1_radial_1184_18)"/>
<g filter="url(#filter0_d_1184_18)">
<path fill-rule="evenodd" clip-rule="evenodd" d="M20.0213 19.0785C20.8423 18.0521 21.3333 16.75 21.3333 15.3334C21.3333 12.0197 18.647 9.33337 15.3333 9.33337C12.0196 9.33337 9.33333 12.0197 9.33333 15.3334C9.33333 18.6471 12.0196 21.3334 15.3333 21.3334C16.75 21.3334 18.052 20.8424 19.0785 20.0213L21.5286 22.4714C21.7889 22.7318 22.211 22.7318 22.4714 22.4714C22.7317 22.2111 22.7317 21.789 22.4714 21.5286L20.0213 19.0785Z" fill="white"/>
</g>
<defs>
<filter id="filter0_d_1184_18" x="6.33333" y="8.33337" width="19.3333" height="19.3334" filterUnits="userSpaceOnUse" color-interpolation-filters="sRGB">
<feFlood flood-opacity="0" result="BackgroundImageFix"/>
<feColorMatrix in="SourceAlpha" type="matrix" values="0 0 0 0 0 0 0 0 0 0 0 0 0 0 0 0 0 0 127 0" result="hardAlpha"/>
<feOffset dy="2"/>
<feGaussianBlur stdDeviation="1.5"/>
<feComposite in2="hardAlpha" operator="out"/>
<feColorMatrix type="matrix" values="0 0 0 0 0.0745098 0 0 0 0 0.0745098 0 0 0 0 0.0745098 0 0 0 0.24 0"/>
<feBlend mode="hard-light" in2="BackgroundImageFix" result="effect1_dropShadow_1184_18"/>
<feBlend mode="normal" in="SourceGraphic" in2="effect1_dropShadow_1184_18" result="shape"/>
</filter>
<radialGradient id="paint0_radial_1184_18" cx="0" cy="0" r="1" gradientUnits="userSpaceOnUse" gradientTransform="rotate(45) scale(45.2548)">
<stop stop-color="#39C86A" stop-opacity="0"/>
<stop offset="1" stop-color="#39C86A" stop-opacity="0.72"/>
</radialGradient>
<radialGradient id="paint1_radial_1184_18" cx="0" cy="0" r="1" gradientUnits="userSpaceOnUse" gradientTransform="translate(29 29) rotate(-135) scale(36.7696)">
<stop stop-color="#39C86A"/>
<stop offset="1" stop-color="#39C86A" stop-opacity="0.72"/>
</radialGradient>
</defs>
</svg>
