<svg width="32" height="32" viewBox="0 0 32 32" fill="none" xmlns="http://www.w3.org/2000/svg">
<rect width="32" height="32" rx="10" fill="white"/>
<rect width="32" height="32" rx="10" fill="url(#paint0_radial_1383_21)"/>
<rect x="3" y="3" width="26" height="26" rx="8" fill="url(#paint1_radial_1383_21)"/>
<g filter="url(#filter0_d_1383_21)">
<path fill-rule="evenodd" clip-rule="evenodd" d="M13.2123 9.3332C13.231 9.33329 13.2492 9.33337 13.2667 9.33337H18.7333C18.7508 9.33337 18.7689 9.33329 18.7877 9.3332C18.9733 9.33233 19.2173 9.33118 19.4332 9.40976C19.7851 9.53782 20.0622 9.81498 20.1903 10.1668C20.2334 10.2853 20.2525 10.4123 20.2608 10.5334L21.117 10.5334C21.242 10.5334 21.3669 10.5333 21.4737 10.5406C21.5913 10.5487 21.7348 10.5677 21.8847 10.6298C22.1951 10.7584 22.4417 11.0049 22.5702 11.3153C22.6323 11.4652 22.6514 11.6087 22.6594 11.7264C22.6667 11.8332 22.6667 11.958 22.6667 12.0831L22.6667 12.4C22.6667 12.4296 22.6667 12.4587 22.6667 12.4874C22.667 12.9595 22.6672 13.3226 22.5826 13.6385C22.3545 14.4897 21.6896 15.1546 20.8384 15.3827C20.6152 15.4425 20.3683 15.4599 20.0761 15.4649C19.6009 16.9979 18.2846 18.1611 16.6667 18.4149V18.9334H16.8667C18.4131 18.9334 19.6667 20.187 19.6667 21.7334C19.6667 22.2488 19.2488 22.6667 18.7333 22.6667H13.2667C12.7512 22.6667 12.3333 22.2488 12.3333 21.7334C12.3333 20.187 13.5869 18.9334 15.1333 18.9334H15.3333V18.4149C13.7154 18.1611 12.3991 16.9979 11.9239 15.4649C11.6317 15.4599 11.3848 15.4425 11.1616 15.3827C10.3103 15.1546 9.64546 14.4897 9.41737 13.6385C9.33275 13.3226 9.33298 12.9595 9.33329 12.4874C9.33331 12.4587 9.33333 12.4296 9.33333 12.4V12.1C9.33333 12.0944 9.33332 12.0887 9.33332 12.0831C9.33331 11.958 9.33329 11.8332 9.34058 11.7264C9.34861 11.6087 9.36765 11.4652 9.42974 11.3153C9.5583 11.0049 9.80489 10.7584 10.1153 10.6298C10.2652 10.5677 10.4087 10.5487 10.5263 10.5406C10.6331 10.5333 10.758 10.5334 10.883 10.5334C10.8887 10.5334 10.8943 10.5334 10.9 10.5334H11.7392C11.7475 10.4123 11.7666 10.2853 11.8097 10.1668C11.9378 9.81498 12.2149 9.53782 12.5668 9.40976C12.7827 9.33118 13.0267 9.33233 13.2123 9.3332ZM11.7333 11.8667H10.9C10.7915 11.8667 10.7205 11.8669 10.6684 11.8685C10.6669 11.9206 10.6667 11.9916 10.6667 12.1V12.4C10.6667 13.0009 10.6724 13.1706 10.7053 13.2934C10.8101 13.6845 11.1156 13.99 11.5067 14.0948C11.5615 14.1094 11.6256 14.1187 11.7333 14.1245V11.8667ZM20.2667 11.8667V14.1245C20.3744 14.1187 20.4385 14.1094 20.4933 14.0948C20.8844 13.99 21.1899 13.6845 21.2947 13.2934C21.3276 13.1706 21.3333 13.0009 21.3333 12.4V12.1C21.3333 11.9916 21.3331 11.9206 21.3316 11.8685C21.2795 11.8669 21.2085 11.8667 21.1 11.8667H20.2667Z" fill="white"/>
</g>
<defs>
<filter id="filter0_d_1383_21" x="6.33325" y="8.33301" width="19.3335" height="19.3337" filterUnits="userSpaceOnUse" color-interpolation-filters="sRGB">
<feFlood flood-opacity="0" result="BackgroundImageFix"/>
<feColorMatrix in="SourceAlpha" type="matrix" values="0 0 0 0 0 0 0 0 0 0 0 0 0 0 0 0 0 0 127 0" result="hardAlpha"/>
<feOffset dy="2"/>
<feGaussianBlur stdDeviation="1.5"/>
<feComposite in2="hardAlpha" operator="out"/>
<feColorMatrix type="matrix" values="0 0 0 0 0.0745098 0 0 0 0 0.0745098 0 0 0 0 0.0745098 0 0 0 0.24 0"/>
<feBlend mode="hard-light" in2="BackgroundImageFix" result="effect1_dropShadow_1383_21"/>
<feBlend mode="normal" in="SourceGraphic" in2="effect1_dropShadow_1383_21" result="shape"/>
</filter>
<radialGradient id="paint0_radial_1383_21" cx="0" cy="0" r="1" gradientUnits="userSpaceOnUse" gradientTransform="rotate(45) scale(45.2548)">
<stop stop-color="#FF8A65" stop-opacity="0"/>
<stop offset="1" stop-color="#FF8A65" stop-opacity="0.72"/>
</radialGradient>
<radialGradient id="paint1_radial_1383_21" cx="0" cy="0" r="1" gradientUnits="userSpaceOnUse" gradientTransform="translate(29 29) rotate(-135) scale(36.7696)">
<stop stop-color="#FF8A65"/>
<stop offset="1" stop-color="#FF8A65" stop-opacity="0.72"/>
</radialGradient>
</defs>
</svg>
