<svg fill="none" height="32" viewBox="0 0 32 32" width="32" xmlns="http://www.w3.org/2000/svg" xmlns:xlink="http://www.w3.org/1999/xlink"><filter id="a" color-interpolation-filters="sRGB" filterUnits="userSpaceOnUse" height="16.6667" width="19.3333" x="6.33333" y="9.66669"><feFlood flood-opacity="0" result="BackgroundImageFix"/><feColorMatrix in="SourceAlpha" result="hardAlpha" type="matrix" values="0 0 0 0 0 0 0 0 0 0 0 0 0 0 0 0 0 0 127 0"/><feOffset dy="2"/><feGaussianBlur stdDeviation="1.5"/><feComposite in2="hardAlpha" operator="out"/><feColorMatrix type="matrix" values="0 0 0 0 0.0745098 0 0 0 0 0.0745098 0 0 0 0 0.0745098 0 0 0 0.24 0"/><feBlend in2="BackgroundImageFix" mode="hard-light" result="effect1_dropShadow_18_1283"/><feBlend in="SourceGraphic" in2="effect1_dropShadow_18_1283" mode="normal" result="shape"/></filter><radialGradient id="b" cx="0" cy="0" gradientTransform="matrix(31.99997596 31.99997596 -31.99997596 31.99997596 0 0)" gradientUnits="userSpaceOnUse" r="1"><stop offset="0" stop-color="#f3b56c" stop-opacity="0"/><stop offset="1" stop-color="#f3b56c" stop-opacity=".72"/></radialGradient><radialGradient id="c" cx="0" cy="0" gradientTransform="matrix(-26.0000335 -26.0000335 26.0000335 -26.0000335 29 29)" gradientUnits="userSpaceOnUse" r="1"><stop offset="0" stop-color="#f3b56c"/><stop offset="1" stop-color="#f3b56c" stop-opacity=".72"/></radialGradient><rect fill="url(#b)" height="32" rx="10" width="32"/><rect fill="url(#c)" height="26" rx="8" width="26" x="3" y="3"/><g filter="url(#a)"><path clip-rule="evenodd" d="m16 10.6667c-1.7817 0-3.2233.861-4.2786 1.8244-1.0556.9637-1.77755 2.076-2.13792 2.7001l-.01419.0245c-.07248.1249-.16311.2811-.2087.4986-.03635.1735-.03635.3979 0 .5714.04559.2176.13622.3737.2087.4986l.0142.0245c.36036.6241 1.08231 1.7365 2.13791 2.7001 1.0553.9634 2.4969 1.8245 4.2786 1.8245s3.2233-.8611 4.2786-1.8245c1.0556-.9636 1.7775-2.076 2.1379-2.7001l.0142-.0245c.0725-.1249.1631-.281.2087-.4986.0363-.1735.0363-.3979 0-.5714-.0456-.2175-.1362-.3737-.2087-.4986l-.0142-.0245c-.3604-.6241-1.0823-1.7364-2.1379-2.7001-1.0553-.9634-2.4969-1.8244-4.2786-1.8244zm1.3333 5.3333c0 .7364-.5969 1.3334-1.3333 1.3334s-1.3333-.597-1.3333-1.3334.5969-1.3333 1.3333-1.3333 1.3333.5969 1.3333 1.3333zm1.3334 0c0 1.4728-1.1939 2.6667-2.6667 2.6667s-2.6667-1.1939-2.6667-2.6667c0-1.4727 1.1939-2.6666 2.6667-2.6666s2.6667 1.1939 2.6667 2.6666z" fill="#fff" fill-rule="evenodd"/></g></svg>