<svg width="115" height="32" viewBox="0 0 115 32" fill="none" xmlns="http://www.w3.org/2000/svg">
<g clip-path="url(#clip0_4463_5347)">
<path d="M91.2773 27.5146V8.59316H96.6935L96.9074 13.2255L95.482 13.6175C95.7908 12.6673 96.3254 11.7883 97.0855 10.9806C97.8696 10.1492 98.8197 9.48398 99.9362 8.98512C101.077 8.46248 102.324 8.20117 103.678 8.20117C105.388 8.20117 106.813 8.53375 107.954 9.19893C109.118 9.86408 109.997 10.8024 110.591 12.014C111.208 13.2018 111.517 14.5796 111.517 16.1475V27.5146H105.816V17.0739C105.816 16.2425 105.638 15.5179 105.281 14.9003C104.949 14.2826 104.462 13.8075 103.82 13.4749C103.203 13.1424 102.478 12.988 101.647 13.0117C100.934 13.0117 100.293 13.1424 99.7224 13.4037C99.1523 13.6412 98.6535 13.9619 98.2258 14.3658C97.822 14.7696 97.5131 15.2091 97.2993 15.6842C97.1093 16.1593 97.0143 16.6344 97.0143 17.1096V27.5146H94.1635C93.3323 27.5146 92.6789 27.5146 92.2039 27.5146C91.7286 27.5146 91.42 27.5146 91.2773 27.5146Z" fill="white" fill-opacity="0.9"/>
<path d="M81.8839 27.516V8.59456H87.6211V27.516H81.8839ZM84.7347 5.87954C83.6658 5.87954 82.8343 5.63009 82.2404 5.13124C81.6465 4.6086 81.3496 3.87217 81.3496 2.92195C81.3496 2.06675 81.6465 1.36595 82.2404 0.819572C82.8343 0.273191 83.6658 0 84.7347 0C85.8038 0 86.6351 0.261314 87.2289 0.783938C87.8466 1.28281 88.1554 1.99548 88.1554 2.92195C88.1554 3.80091 87.8466 4.51359 87.2289 5.05997C86.6115 5.60635 85.78 5.87954 84.7347 5.87954Z" fill="white" fill-opacity="0.9"/>
<path d="M65.581 27.8353C63.633 27.8353 61.9226 27.4196 60.4496 26.588C58.9769 25.733 57.8246 24.5688 56.9933 23.096C56.1618 21.6231 55.7461 19.9484 55.7461 18.0717C55.7461 16.1475 56.1618 14.4489 56.9933 12.9761C57.8484 11.4795 59.0126 10.3154 60.4853 9.48398C61.9819 8.62878 63.728 8.20117 65.7234 8.20117C66.8399 8.20117 67.8733 8.34371 68.8237 8.62878C69.7738 8.91385 70.6172 9.29393 71.3537 9.76905C72.0899 10.2204 72.6838 10.7312 73.1352 11.3013C73.6103 11.8714 73.9072 12.4416 74.026 13.0117L72.7076 13.083V8.59316H78.3733V27.5146H72.6007V22.5615L73.8122 22.8109C73.7172 23.4286 73.4322 24.0344 72.9571 24.6282C72.4818 25.2222 71.8761 25.7685 71.1398 26.2673C70.4033 26.7426 69.5599 27.1226 68.6098 27.4076C67.6595 27.6927 66.6499 27.8353 65.581 27.8353ZM67.0776 23.0247C68.2653 23.0247 69.2749 22.8228 70.1064 22.419C70.9617 21.9914 71.6149 21.4093 72.0663 20.6729C72.5414 19.9127 72.779 19.0456 72.779 18.0717C72.779 17.0502 72.5414 16.1712 72.0663 15.4348C71.6149 14.6984 70.9617 14.1163 70.1064 13.6887C69.2749 13.2611 68.2653 13.0473 67.0776 13.0473C65.9372 13.0473 64.9395 13.2611 64.0842 13.6887C63.2529 14.1163 62.5996 14.6984 62.1245 15.4348C61.6495 16.1712 61.4118 17.0502 61.4118 18.0717C61.4118 19.0456 61.6495 19.9127 62.1245 20.6729C62.5996 21.4093 63.2529 21.9914 64.0842 22.419C64.9395 22.8228 65.9372 23.0247 67.0776 23.0247Z" fill="white" fill-opacity="0.9"/>
<path d="M0 18.0791C0 16.4928 0 15.6997 0.075109 15.0324C0.705295 9.43371 5.15746 5.01451 10.7979 4.389C11.4702 4.31445 12.2692 4.31445 13.8674 4.31445H21.2566V31.8439H13.8674C12.2692 31.8439 11.4702 31.8439 10.7979 31.7692C5.15746 31.1438 0.705295 26.7246 0.075109 21.1259C0 20.4586 0 19.6654 0 18.0791Z" fill="white" fill-opacity="0.9"/>
<path d="M25.0781 4.31445H25.8879C32.6906 4.31445 36.092 4.31445 38.6904 5.62854C40.9758 6.78446 42.8341 8.6289 43.9985 10.8975C45.3224 13.4766 45.3224 16.8527 45.3224 23.6051V31.8439H25.0781V4.31445Z" fill="white" fill-opacity="0.9"/>
</g>
<defs>
<clipPath id="clip0_4463_5347">
<rect width="114.109" height="32" fill="white"/>
</clipPath>
</defs>
</svg>
