<svg width="145" height="27" viewBox="0 0 145 27" fill="none" xmlns="http://www.w3.org/2000/svg">
<path fill-rule="evenodd" clip-rule="evenodd" d="M0.121094 0.0117188H10.6781C12.689 0.0117188 14.1971 0.521228 15.3143 1.37041C16.5431 2.38943 17.2134 3.86134 17.2134 5.67293C17.2134 7.76758 16.3756 9.06966 14.6998 9.86223V9.97545C16.9341 10.7114 18.2188 12.7494 18.2188 15.1838C18.2188 17.5049 17.3251 19.3165 15.8728 20.4487C14.644 21.3545 13.08 21.7508 10.9574 21.7508H0.121094V0.0117188ZM9.61683 8.50354C10.734 8.50354 11.5718 7.8808 11.5718 6.57873C11.5718 5.33326 10.734 4.71053 9.56097 4.71053H5.93025V8.44693H9.61683V8.50354ZM10.1195 16.9387C11.4043 16.9387 12.3538 16.1462 12.3538 14.7309C12.3538 13.2023 11.3484 12.523 10.1195 12.523H5.98611V16.9954H10.1195V16.9387ZM19.168 0.0117188H24.6978V21.8074H19.168V0.0117188ZM33.804 5.8418C28.9444 5.8418 25.8164 9.1253 25.8164 14.0506C25.8164 18.9758 28.9444 22.2593 33.804 22.2593C38.6636 22.2593 41.7357 18.9758 41.7357 14.0506C41.7357 9.18191 38.6636 5.8418 33.804 5.8418ZM33.6923 9.63481C35.368 9.63481 36.2059 11.3332 36.2059 14.0506C36.2059 16.7679 35.368 18.4663 33.6923 18.5229C32.0166 18.5229 31.2346 16.7679 31.2346 14.0506C31.2346 11.3332 32.0166 9.63481 33.6923 9.63481ZM42.3477 14.0506C42.3477 9.1253 45.4757 5.8418 50.3352 5.8418C55.1948 5.8418 58.2111 9.1253 58.2111 14.0506C58.2111 18.9758 55.139 22.2593 50.2794 22.2593C45.4757 22.2593 42.3477 18.9758 42.3477 14.0506ZM52.7371 14.0506C52.7371 11.3332 51.8992 9.63481 50.2235 9.63481C48.5478 9.63481 47.7658 11.3332 47.7658 14.0506C47.7658 16.7679 48.5478 18.5229 50.2235 18.5229C51.8992 18.4663 52.7371 16.7679 52.7371 14.0506ZM64.4709 6.24001H59.332V21.7517H64.8619V13.3165C64.8619 11.6182 65.5322 10.3727 66.8728 10.3727C68.2133 10.3727 68.716 11.3917 68.716 12.9768V21.7517H74.0783V13.3165C74.0783 11.6182 74.7486 10.3727 76.0892 10.3727C77.4298 10.3727 77.9325 11.3917 77.9325 12.9768V21.7517H83.2948V12.0144C83.2948 8.44788 81.7867 5.78711 78.2118 5.78711C76.3126 5.78711 74.6928 6.40984 73.4639 8.44788H73.3522C72.6261 6.74952 71.1738 5.78711 69.2188 5.78711C66.9845 5.78711 65.588 6.74952 64.5826 8.5611H64.4709V6.24001ZM90.0502 19.7127H89.9943V21.7508H84.8555V0.0117188H90.2178V7.82419H90.3295C91.3349 6.4655 92.7313 5.72954 94.6863 5.72954C98.5405 5.72954 100.775 9.23949 100.775 13.9383C100.775 19.2032 98.3729 22.2603 94.3512 22.2603C92.6755 22.2603 90.9439 21.4677 90.0502 19.7127ZM95.2449 13.8817C95.2449 11.3908 94.3512 9.749 92.7313 9.749C91.0556 9.749 90.0502 11.3908 90.0502 13.8817C90.0502 16.3726 91.1115 18.0144 92.7313 18.0144C94.3512 18.0144 95.2449 16.4292 95.2449 13.8817ZM109.151 5.78711C104.571 5.78711 101.387 9.12722 101.387 13.9959C101.387 18.9211 104.571 22.2046 109.318 22.2612C113.173 22.2612 115.91 20.5063 116.803 16.9397H111.609C111.273 17.9587 110.436 18.4116 109.486 18.4116C107.866 18.4116 106.972 17.3926 106.749 15.4678H117.027C117.083 12.2975 116.301 9.58012 114.513 7.82515C113.173 6.52307 111.441 5.78711 109.151 5.78711ZM111.664 12.3541H106.749C106.917 10.5425 107.754 9.4669 109.263 9.52351C110.547 9.52351 111.553 10.4859 111.664 12.3541ZM123.119 8.90083H123.231C124.348 6.74957 125.8 5.90039 127.644 5.90039C128.091 5.90039 128.37 5.957 128.537 6.07023V10.8256H128.426C125.242 10.2595 123.399 11.7881 123.399 15.298V21.8084H117.98V6.24006H123.119V8.90083ZM134.29 21.8064H129.096C129.598 25.2597 132.447 26.9581 136.581 26.9014C138.759 26.9014 140.658 26.3919 141.999 25.2031C143.283 24.0708 144.121 22.146 144.121 19.6551V6.18141H138.982V7.87978H138.871C138.033 6.5777 136.804 5.72852 134.737 5.72852C131.162 5.72852 128.816 9.18186 128.816 13.6542C128.816 18.5229 131.721 21.0138 135.017 21.0138C136.692 21.0138 137.865 20.2778 138.703 19.2588H138.815V20.3911C138.815 22.0328 138.2 23.1084 136.469 23.1084C135.184 23.1084 134.514 22.4857 134.29 21.8064ZM136.581 9.91781C138.145 9.91781 139.038 11.503 139.038 13.4278C139.038 15.4658 138.089 16.9943 136.581 16.9943C135.072 16.9943 134.123 15.5224 134.123 13.4278C134.123 11.2765 135.072 9.91781 136.581 9.91781Z" fill="white" fill-opacity="0.9"/>
</svg>
