<svg width="151" height="33" viewBox="0 0 151 33" fill="none" xmlns="http://www.w3.org/2000/svg">
<path d="M0.765625 7.70759V15.2988H8.35687H15.9481V7.70759V0.116345H8.35687H0.765625V7.70759Z" fill="white" fill-opacity="0.9"/>
<path d="M17.5485 0.198097C17.5018 0.233134 17.4668 3.65503 17.4668 7.78934V15.2988H25.058H32.6493V7.70759V0.116345H25.1398C21.0055 0.116345 17.5836 0.151382 17.5485 0.198097Z" fill="white" fill-opacity="0.9"/>
<path d="M139.393 5.25535C138.167 5.52397 136.871 6.43492 136.322 7.43929C135.843 8.32689 135.656 9.23783 135.656 10.651V11.9006L134.523 11.9356L133.379 11.9707L133.344 13.2787L133.309 14.5984H134.488H135.656V20.1459V25.6933H137.291H138.926V20.1459V14.5984H141.32H143.714V18.1254C143.726 22.3415 143.808 23.1356 144.322 24.1751C144.754 25.0159 145.431 25.5765 146.319 25.8218C147.066 26.0203 148.69 25.9853 149.53 25.7517L150.255 25.5415V24.2335V22.9254L149.589 23.1473C148.514 23.5094 147.674 23.2875 147.253 22.505C147.066 22.178 147.043 21.6991 147.008 18.359L146.973 14.5984H148.608H150.255V13.2554V11.9123H148.62H146.985V9.91521V7.91813L146.669 7.99988C146.482 8.03491 145.747 8.25681 145.034 8.47871L143.714 8.88747V10.4291V11.9707L141.309 11.9356L138.903 11.9006L138.938 10.5342C138.985 9.03929 139.136 8.60718 139.767 8.14002C140.199 7.8247 141.203 7.74294 141.893 7.97652L142.43 8.16338V6.7736C142.43 5.59404 142.406 5.38382 142.231 5.32543C141.881 5.18528 139.93 5.15024 139.393 5.25535Z" fill="white" fill-opacity="0.9"/>
<path d="M66.6805 6.41173C66.0732 6.78545 65.7812 7.29932 65.7812 8.01173C65.7812 9.15626 66.6455 9.89202 67.8951 9.78691C68.9579 9.69348 69.6119 9.01611 69.6119 8.00005C69.6119 7.29932 69.3783 6.89056 68.736 6.44677C68.2338 6.10808 67.2061 6.08472 66.6805 6.41173Z" fill="white" fill-opacity="0.9"/>
<path d="M42.2246 16.1168V25.6934H43.8013H45.3779L45.3545 18.3357C45.3312 14.2832 45.3545 10.9781 45.3896 10.9781C45.4246 10.9781 46.7794 14.2949 48.4144 18.3357L51.3808 25.7051L52.5487 25.67L53.7166 25.635L56.6013 18.3591C58.1896 14.3533 59.521 11.0481 59.556 11.0131C59.591 10.9664 59.6261 14.2598 59.6261 18.3124V25.6934H61.2611H62.8961V16.1168V6.54011H60.6421H58.3881L55.7137 13.1036C54.2421 16.7241 52.9341 19.9124 52.8173 20.1927L52.5837 20.7182L51.5677 18.1489C51.0071 16.7474 49.7458 13.5591 48.7648 11.0598L46.9779 6.54011H44.5954H42.2246V16.1168Z" fill="white" fill-opacity="0.9"/>
<path d="M76.9122 11.8541C74.5414 12.3913 72.6845 14.0847 71.8903 16.4672C71.5283 17.5183 71.4348 19.819 71.7034 20.9519C72.1239 22.7154 73.3969 24.4205 74.8684 25.1913C76.6903 26.1373 79.4115 26.2307 81.4319 25.4366L82.1093 25.1679L82.1677 23.673C82.2027 22.8555 82.2144 22.1898 82.2027 22.1898C82.191 22.1898 81.8407 22.3767 81.4202 22.5986C79.4699 23.6847 77.2859 23.4979 76.0129 22.1548C75.0553 21.1504 74.6815 19.7022 74.9268 17.9971C75.1604 16.3738 76.0947 15.1125 77.4494 14.6103C78.7224 14.1314 80.5326 14.3533 81.7005 15.1475C81.9224 15.2876 82.1326 15.4161 82.1677 15.4161C82.2027 15.4161 82.2144 14.7154 82.191 13.8512L82.156 12.2862L81.3735 12.0293C80.3575 11.6906 78.0567 11.5971 76.9122 11.8541Z" fill="white" fill-opacity="0.9"/>
<path d="M90.8089 11.8072C89.6644 11.9707 88.7651 12.6364 88.1929 13.7459L87.9009 14.3065L87.8892 13.1036V11.9007L86.2892 11.9357L84.6775 11.9707L84.6425 18.8262L84.6191 25.6934H86.2425H87.8775L87.9126 21.4539L87.9476 17.2262L88.2746 16.5255C88.7885 15.4393 89.3841 14.8904 90.2717 14.7269C90.8673 14.6218 91.8367 14.7503 92.3505 15.0189L92.6775 15.1941V13.6174C92.6775 12.4846 92.6308 12.0174 92.5374 11.9474C92.2921 11.8072 91.3695 11.7255 90.8089 11.8072Z" fill="white" fill-opacity="0.9"/>
<path d="M98.0615 11.8538C95.5272 12.4261 93.7286 14.2012 93.0863 16.7589C92.8177 17.8217 92.806 19.9589 93.0746 21.0684C93.6235 23.3925 95.3754 25.156 97.7228 25.775C98.7272 26.0319 100.771 26.0319 101.845 25.7516C103.936 25.2261 105.629 23.7545 106.353 21.8626C106.774 20.7064 106.961 19.4567 106.879 18.1604C106.762 16.0465 106.202 14.6801 105.01 13.4772C104.263 12.7414 103.726 12.4027 102.605 12.0056C101.74 11.6903 99.1476 11.6085 98.0615 11.8538ZM101.495 14.645C102.278 14.9954 102.978 15.8129 103.259 16.6655C103.434 17.2027 103.48 17.6815 103.48 18.9195C103.469 20.2859 103.434 20.5896 103.2 21.1735C102.861 22.0377 102.371 22.5866 101.624 22.972C101.11 23.2407 100.876 23.2757 99.9768 23.2757C98.8206 23.2757 98.1899 23.0772 97.4892 22.4932C96.3914 21.5472 95.8892 19.2932 96.3564 17.3078C96.6834 15.9531 97.2907 15.1356 98.3418 14.645C99.171 14.248 100.666 14.248 101.495 14.645Z" fill="white" fill-opacity="0.9"/>
<path d="M111.867 11.8541C110.489 12.2395 109.263 13.2088 108.784 14.2833C108.399 15.1592 108.399 16.7475 108.796 17.5767C109.275 18.5577 109.812 18.9781 111.879 19.9708C112.918 20.473 113.864 20.9986 113.981 21.1271C114.285 21.4657 114.366 22.3416 114.121 22.7154C113.456 23.7314 110.98 23.6263 109.123 22.4935L108.445 22.0847V23.6614V25.2263L108.866 25.4015C110.162 25.9387 112.661 26.1139 114.028 25.7635C115.534 25.3781 116.644 24.5606 117.204 23.4161C117.438 22.9256 117.485 22.657 117.485 21.7227C117.485 20.8117 117.45 20.5314 117.239 20.1344C116.656 19.0249 115.908 18.4643 113.806 17.5183C112.264 16.8409 111.844 16.4789 111.75 15.7781C111.529 14.1781 113.946 13.711 116.305 14.9022L116.866 15.1942L116.831 13.6993L116.796 12.2161L116.095 11.9942C115.137 11.6906 112.72 11.6088 111.867 11.8541Z" fill="white" fill-opacity="0.9"/>
<path d="M124.035 11.9017C122.389 12.3104 120.952 13.3031 120.111 14.6112C118.897 16.5148 118.628 19.6214 119.481 21.9221C120.532 24.7367 123.51 26.3484 126.885 25.928C128.812 25.6944 129.863 25.2155 131.043 24.0126C132.468 22.5761 133.016 21.0929 133.016 18.6871C133.016 16.3396 132.468 14.798 131.183 13.5017C130.319 12.6491 129.571 12.2287 128.345 11.9134C127.189 11.6097 125.203 11.6097 124.035 11.9017ZM127.784 14.6812C128.438 15.0316 129.046 15.7323 129.361 16.5382C129.583 17.1221 129.63 17.4491 129.63 18.7455C129.641 21.1396 129.151 22.2608 127.784 22.9498C127.165 23.2535 126.967 23.2885 126.091 23.2885C124.83 23.2769 124.047 22.9732 123.393 22.2258C122.634 21.3498 122.412 20.6258 122.4 18.9207C122.4 16.5849 122.926 15.4404 124.351 14.7163C125.051 14.3659 125.133 14.3542 126.196 14.3893C127.037 14.4243 127.422 14.4944 127.784 14.6812Z" fill="white" fill-opacity="0.9"/>
<path d="M66.0508 18.8028V25.6934H67.6858H69.3209L69.2975 18.8262L69.2625 11.9707L67.6625 11.9357L66.0508 11.9007V18.8028Z" fill="white" fill-opacity="0.9"/>
<path d="M0.765625 24.5259V32.1172H8.35687H15.9481V24.5259V16.9347H8.35687H0.765625V24.5259Z" fill="white" fill-opacity="0.9"/>
<path d="M17.4902 24.4909L17.5252 32.0588L25.0931 32.0938L32.6493 32.1172V24.5259V16.9347H25.058H17.4668L17.4902 24.4909Z" fill="white" fill-opacity="0.9"/>
</svg>
