<svg width="178" height="31" viewBox="0 0 178 31" fill="none" xmlns="http://www.w3.org/2000/svg">
<path fill-rule="evenodd" clip-rule="evenodd" d="M145.857 19.7514L138.977 5.93171L132.091 19.7514L127.064 29.8443H150.883L145.857 19.7514ZM136.907 4.89576L138.977 0.751953L141.033 4.89576L147.913 18.7155L152.94 28.8083L154.607 32.1619H123.334L125.002 28.8083L130.029 18.7155L136.907 4.89576ZM4.51048 5.83008L16.8302 22.2491V5.83008H21.2653V29.8246H16.9307L4.64695 13.4474V29.8246H0.177734V5.83008H4.51048ZM47.2985 5.83008V9.84058H34.3686V15.7706H45.9682V19.7812H34.3686V25.814H47.7079V29.8246H29.8027V5.83008H47.2985ZM72.0528 9.91677V5.83008H52.5723V9.91677H60.0098V29.8246H64.6154V9.91677H72.0528ZM96.9699 14.091C96.9699 19.5736 93.5242 22.7633 87.5195 22.7633H82.3058V29.8246H77.7285V5.83008H87.5195C93.5242 5.83008 96.9699 8.81226 96.9699 14.091ZM92.6369 14.2281C92.6369 11.2802 90.6927 9.84819 87.2808 9.84819H82.3058V18.7185H87.2868C90.6927 18.7185 92.6369 17.2427 92.6369 14.2281ZM120.9 9.84058V5.83008H103.396V29.8246H121.309V25.814H107.969V19.7812H119.567V15.7706H107.969V9.84058H120.9ZM172.472 29.8246L165.037 19.5412L161.216 23.7916V29.8246H156.643V5.83008H161.216V17.5531L172.02 5.83008H177.341L168.242 15.9745L178 29.8246H172.472ZM142.312 18.1169L138.971 11.4004L135.627 18.1169H142.312ZM134.376 20.627H143.563L146.918 27.3682H131.021L134.376 20.627Z" fill="white" fill-opacity="0.9"/>
</svg>
